<?xml version="1.0" encoding="UTF-8"?>
<svg width="188px" height="308px" viewBox="0 0 188 308" version="1.1" xmlns="http://www.w3.org/2000/svg" xmlns:xlink="http://www.w3.org/1999/xlink">
    <g id="social-icons" stroke="none" stroke-width="1" fill="none" fill-rule="evenodd">
        <g id="Desktop-HD" transform="translate(-1372.000000, -737.000000)" fill="#212529">
            <g id="safari-pinned-tab" transform="translate(1372.000000, 737.000000)">
                <path d="M132.808646,0 C141.164852,0 148.205327,5.7964277 150.279284,13.6625811 C166.841899,19.8343418 179.737853,33.4328363 185.19627,50.5762628 C190.862705,68.3718999 187.83772,87.8580761 177.049588,103.007491 L102.122,208.213 L102.122287,238.26728 C116.853435,242.260059 127.733065,255.818746 127.99045,271.952037 L127.995115,272.537287 C127.995115,292.081949 112.403599,308 93.1236711,308 C73.8434226,308 58.252227,292.082088 58.252227,272.537287 C58.252227,255.511508 70.0829853,241.238369 85.8773831,237.841663 L85.8752513,208.220813 L10.9506628,103.00751 C0.162376255,87.8586216 -2.86259595,68.3725305 2.80346582,50.5764048 C8.26203548,33.4324966 21.1584008,19.8337945 37.7211219,13.6608577 C39.7953676,5.79593828 46.835282,0 55.1911351,0 C65.1750147,0 73.2809557,8.27523882 73.2809557,18.4686781 C73.2809557,28.6616515 65.1750147,36.9373562 55.1911351,36.9373562 C49.4441522,36.9373562 44.3196614,34.195489 41.0051131,29.9243402 C30.2605207,34.7197993 21.9507738,44.0041304 18.2774793,55.5409664 C14.1708381,68.4392203 16.3642192,82.5684161 24.1662421,93.5239995 L94,191.586 L163.833929,93.5240916 C171.63583,82.5681421 173.82922,68.4388874 169.722323,55.5410348 C166.047313,43.9988102 157.731585,34.7112263 146.998027,29.9196137 C143.683465,34.1937794 138.55742,36.9373562 132.808646,36.9373562 C122.824766,36.9373562 114.718825,28.6616515 114.718825,18.4686781 C114.718825,8.27523882 122.824766,0 132.808646,0 Z M93.1236711,253.38184 C82.8772916,253.38184 74.4973654,261.937268 74.4973654,272.537287 C74.4973654,283.137022 82.877471,291.692734 93.1236711,291.692734 C103.369594,291.692734 111.749977,283.13684 111.749977,272.537287 C111.749977,261.93745 103.369774,253.38184 93.1236711,253.38184 Z" id="Combined-Shape" fill-rule="nonzero"></path>
                <path d="M93.5,263 C98.7431521,263 103,267.480892 103,273 C103,278.519108 98.7431521,283 93.5,283 C88.2568479,283 84,278.519108 84,273 C84,267.480892 88.2568479,263 93.5,263 Z" id="Fill-2"></path>
                <rect id="Rectangle" x="65" y="79" width="58" height="22" rx="4"></rect>
                <path d="M69,79 L119,79 C121.209139,79 123,80.790861 123,83 L123,97 C123,99.209139 121.209139,101 119,101 L69,101 C66.790861,101 65,99.209139 65,97 L65,83 C65,80.790861 66.790861,79 69,79 Z" id="Rectangle" transform="translate(94.000000, 90.000000) rotate(90.000000) translate(-94.000000, -90.000000) "></path>
            </g>
        </g>
    </g>
</svg>