<?xml version="1.0" encoding="UTF-8"?>
<svg width="16px" height="16px" viewBox="0 0 16 16" version="1.1" xmlns="http://www.w3.org/2000/svg" xmlns:xlink="http://www.w3.org/1999/xlink">
    <g id="icon-family-dr" stroke="none" stroke-width="1" fill="none" fill-rule="evenodd">
        <g transform="translate(0.000000, -0.009615)" fill="#212529" fill-rule="nonzero" id="">
            <path d="M3.75,10.4471154 C2.6875,10.2596154 1.796875,9.74919872 1.078125,8.91586538 C0.359375,8.08253205 0,7.11378205 0,6.00961538 L0,0.884615385 C0,0.676282051 0.09375,0.551282051 0.28125,0.509615385 L2.46875,0.00961538462 C2.71875,-0.0320512821 2.86458333,0.0616987179 2.90625,0.290865385 L3.09375,1.04086538 C3.13541667,1.29086538 3.04166667,1.43669872 2.8125,1.47836538 L1.5,1.75961538 L1.5,6.00961538 C1.5,6.84294872 1.796875,7.55128205 2.390625,8.13461538 C2.984375,8.71794872 3.69791667,9.00961538 4.53125,9.00961538 C5.34375,9.00961538 6.04166667,8.70753205 6.625,8.10336538 C7.20833333,7.49919872 7.5,6.79086538 7.5,5.97836538 L7.5,1.75961538 L6.1875,1.47836538 C5.95833333,1.43669872 5.86458333,1.29086538 5.90625,1.04086538 L6.09375,0.290865385 C6.13541667,0.0616987179 6.28125,-0.0320512821 6.53125,0.00961538462 L8.71875,0.509615385 C8.90625,0.551282051 9,0.676282051 9,0.884615385 L9,6.00961538 C9,7.11378205 8.640625,8.08253205 7.921875,8.91586538 C7.203125,9.74919872 6.3125,10.2596154 5.25,10.4471154 L5.25,11.0096154 C5.25,11.9679487 5.61458333,12.7908654 6.34375,13.4783654 C7.07291667,14.1658654 7.95833333,14.5096154 9,14.5096154 C10.0416667,14.5096154 10.9270833,14.1658654 11.65625,13.4783654 C12.3854167,12.7908654 12.75,11.9679487 12.75,11.0096154 L12.75,7.88461538 C12.2291667,7.73878205 11.8072917,7.44711538 11.484375,7.00961538 C11.1614583,6.57211538 11,6.07211538 11,5.50961538 C11,4.80128205 11.25,4.20232372 11.75,3.71274038 C12.25,3.22315705 12.8541667,2.98878205 13.5625,3.00961538 C14.2291667,3.03044872 14.8020833,3.28565705 15.28125,3.77524038 C15.7604167,4.26482372 16,4.85336538 16,5.54086538 C16,5.89503205 15.921875,6.23357372 15.765625,6.55649038 C15.609375,6.87940705 15.4010417,7.15544872 15.140625,7.38461538 C14.8802083,7.61378205 14.5833333,7.78044872 14.25,7.88461538 L14.25,11.0096154 C14.25,12.3846154 13.734375,13.5616987 12.703125,14.5408654 C11.671875,15.5200321 10.4375,16.0096154 9,16.0096154 C7.5625,16.0096154 6.328125,15.5200321 5.296875,14.5408654 C4.265625,13.5616987 3.75,12.3846154 3.75,11.0096154 L3.75,10.4471154 Z M14.1875,4.82211538 C14,4.61378205 13.7708333,4.50961538 13.5,4.50961538 C13.2291667,4.50961538 12.9947917,4.60857372 12.796875,4.80649038 C12.5989583,5.00440705 12.5,5.23878205 12.5,5.50961538 C12.5,5.78044872 12.5989583,6.01482372 12.796875,6.21274038 C12.9947917,6.41065705 13.2291667,6.50961538 13.5,6.50961538 C13.7708333,6.50961538 14.0052083,6.41065705 14.203125,6.21274038 C14.4010417,6.01482372 14.5,5.78044872 14.5,5.50961538 C14.5,5.23878205 14.3958333,5.00961538 14.1875,4.82211538 Z"></path>
        </g>
    </g>
</svg>