<?xml version="1.0" encoding="UTF-8"?>
<svg width="20px" height="20px" viewBox="0 0 20 20" version="1.1" xmlns="http://www.w3.org/2000/svg" xmlns:xlink="http://www.w3.org/1999/xlink">
    <g id="icon-phone-none--big" stroke="none" stroke-width="1" fill="none" fill-rule="evenodd">
        <path d="M6.41927083,12.2705078 L8.13802083,14.3798828 C8.94517051,13.9800797 9.69332243,13.5212788 10.3824766,13.0034802 L11.2572689,13.8775898 C10.2733803,14.6142375 9.11644345,15.289481 7.78645833,15.9033203 L5.48177083,13.0517578 L1.26302083,14.8486328 L2.16145833,18.7548828 C4.40104167,18.7548828 6.54947917,18.3186849 8.60677083,17.4462891 C10.0575655,16.8310787 11.3626663,16.063699 12.5220731,15.1441502 L13.4028457,16.0247148 C10.197147,18.6781601 6.43699707,20.0048828 2.12239583,20.0048828 C1.86197917,20.0048828 1.61458333,19.913737 1.38020833,19.7314453 C1.14583333,19.5491536 1.00260417,19.3277995 0.950520833,19.0673828 L0.0520833333,15.1220703 C7.46069873e-14,14.991862 -0.0130208333,14.8551432 0.0130208333,14.7119141 C0.0390625,14.5686849 0.0846354167,14.4319661 0.149739583,14.3017578 C0.21484375,14.1715495 0.299479167,14.0608724 0.403645833,13.9697266 C0.5078125,13.8785807 0.625,13.7939453 0.755208333,13.7158203 L4.97395833,11.9189453 C5.546875,11.6585286 6.02864583,11.7757161 6.41927083,12.2705078 Z M15.1302083,0.0439453125 L19.0755208,0.942382812 C19.2578125,0.994466146 19.4205729,1.07910156 19.5638021,1.19628906 C19.7070313,1.31347656 19.8177083,1.45019531 19.8958333,1.60644531 C19.9739583,1.76269531 20.0130208,1.93196615 20.0130208,2.11425781 C20.0130208,6.33084062 18.745894,10.0178779 16.2116403,13.1753696 L15.3151824,12.278538 C16.1477265,11.1787875 16.8542976,9.95866287 17.4348958,8.61816406 C18.3203125,6.57389323 18.7630208,4.41894531 18.7630208,2.15332031 L14.8567708,1.25488281 L13.0598958,5.47363281 L15.9114583,7.77832031 C15.344697,9.00630327 14.7255889,10.0867637 14.0541341,11.0197015 L13.1806667,10.1443357 C13.6298283,9.51956161 14.0322796,8.8480773 14.3880208,8.12988281 L12.2786458,6.41113281 C11.7838542,6.02050781 11.6666667,5.53873698 11.9270833,4.96582031 L13.7239583,0.747070312 C13.8541667,0.460611979 14.0494792,0.252278646 14.3098958,0.122070312 C14.5703125,-0.00813802083 14.84375,-0.0341796875 15.1302083,0.0439453125 Z" id="Combined-Shape" fill="#212529" fill-rule="nonzero"></path>
        <path d="M0.969669914,0.969669914 C1.23593648,0.703403352 1.65260016,0.6791973 1.94621165,0.897051761 L2.03033009,0.969669914 L19.0303301,17.9696699 C19.3232233,18.2625631 19.3232233,18.7374369 19.0303301,19.0303301 C18.7640635,19.2965966 18.3473998,19.3208027 18.0537883,19.1029482 L17.9696699,19.0303301 L0.969669914,2.03033009 C0.676776695,1.73743687 0.676776695,1.26256313 0.969669914,0.969669914 Z" id="Line" fill="#212529" fill-rule="nonzero"></path>
    </g>
</svg>