<?xml version="1.0" encoding="UTF-8"?>
<svg width="21px" height="21px" viewBox="0 0 21 21" version="1.1" xmlns="http://www.w3.org/2000/svg" xmlns:xlink="http://www.w3.org/1999/xlink">
    <g id="home-page" stroke="none" stroke-width="1" fill="none" fill-rule="evenodd">
        <g id="Desktop-HD" transform="translate(-562.000000, -263.000000)" fill="#212529" fill-rule="nonzero">
            <g id="icon-phone--big" transform="translate(562.026042, 263.495117)">
                <path d="M19.0755208,0.942382812 C19.2578125,0.994466146 19.4205729,1.07910156 19.5638021,1.19628906 C19.7070313,1.31347656 19.8177083,1.45019531 19.8958333,1.60644531 C19.9739583,1.76269531 20.0130208,1.93196615 20.0130208,2.11425781 C20.0130208,7.06217448 18.2682292,11.2809245 14.7786458,14.7705078 C11.2890625,18.2600911 7.0703125,20.0048828 2.12239583,20.0048828 C1.86197917,20.0048828 1.61458333,19.913737 1.38020833,19.7314453 C1.14583333,19.5491536 1.00260417,19.3277995 0.950520833,19.0673828 L0.0520833333,15.1220703 C3.73034936e-14,14.991862 -0.0130208333,14.8551432 0.0130208333,14.7119141 C0.0390625,14.5686849 0.0846354167,14.4319661 0.149739583,14.3017578 C0.21484375,14.1715495 0.299479167,14.0608724 0.403645833,13.9697266 C0.5078125,13.8785807 0.625,13.7939453 0.755208333,13.7158203 L4.97395833,11.9189453 C5.546875,11.6585286 6.02864583,11.7757161 6.41927083,12.2705078 L8.13802083,14.3798828 C10.9244792,12.9996745 13.0078125,10.9163411 14.3880208,8.12988281 L12.2786458,6.41113281 C11.7838542,6.02050781 11.6666667,5.53873698 11.9270833,4.96582031 L13.7239583,0.747070312 C13.8541667,0.460611979 14.0494792,0.252278646 14.3098958,0.122070312 C14.5703125,-0.00813802083 14.84375,-0.0341796875 15.1302083,0.0439453125 L19.0755208,0.942382812 Z M2.16145833,18.7548828 C4.40104167,18.7548828 6.54947917,18.3186849 8.60677083,17.4462891 C10.6640625,16.5738932 12.4283854,15.3955078 13.8997396,13.9111328 C15.3710938,12.4267578 16.5494792,10.6624349 17.4348958,8.61816406 C18.3203125,6.57389323 18.7630208,4.41894531 18.7630208,2.15332031 L14.8567708,1.25488281 L13.0598958,5.47363281 L15.9114583,7.77832031 C14.9739583,9.80957031 13.8932292,11.4371745 12.6692708,12.6611328 C11.4453125,13.8850911 9.81770833,14.9658203 7.78645833,15.9033203 L5.48177083,13.0517578 L1.26302083,14.8486328 L2.16145833,18.7548828 Z" id="Shape"></path>
            </g>
        </g>
    </g>
</svg>