<?xml version="1.0" encoding="UTF-8"?>
<svg width="16px" height="16px" viewBox="0 0 16 16" version="1.1" xmlns="http://www.w3.org/2000/svg" xmlns:xlink="http://www.w3.org/1999/xlink">
    <g id="icon-filter" stroke="none" stroke-width="1" fill="none" fill-rule="evenodd">
        <g id="" transform="translate(0.000000, 1.000000)" fill="#212529" fill-rule="nonzero">
            <path d="M15.5,1.25 C15.6458333,1.25 15.765625,1.296875 15.859375,1.390625 C15.953125,1.484375 16,1.60416667 16,1.75 L16,2.25 C16,2.39583333 15.953125,2.515625 15.859375,2.609375 C15.765625,2.703125 15.6458333,2.75 15.5,2.75 L9,2.75 L9,3.5 C9,3.64583333 8.953125,3.765625 8.859375,3.859375 C8.765625,3.953125 8.64583333,4 8.5,4 L7.5,4 C7.35416667,4 7.234375,3.953125 7.140625,3.859375 C7.046875,3.765625 7,3.64583333 7,3.5 L7,2.75 L0.5,2.75 C0.354166667,2.75 0.234375,2.703125 0.140625,2.609375 C0.046875,2.515625 0,2.39583333 0,2.25 L0,1.75 C0,1.60416667 0.046875,1.484375 0.140625,1.390625 C0.234375,1.296875 0.354166667,1.25 0.5,1.25 L7,1.25 L7,0.5 C7,0.354166667 7.046875,0.234375 7.140625,0.140625 C7.234375,0.046875 7.35416667,0 7.5,0 L8.5,0 C8.64583333,0 8.765625,0.046875 8.859375,0.140625 C8.953125,0.234375 9,0.354166667 9,0.5 L9,1.25 L15.5,1.25 Z M15.5,11.25 C15.6458333,11.25 15.765625,11.296875 15.859375,11.390625 C15.953125,11.484375 16,11.6041667 16,11.75 L16,12.25 C16,12.3958333 15.953125,12.515625 15.859375,12.609375 C15.765625,12.703125 15.6458333,12.75 15.5,12.75 L5,12.75 L5,13.5 C5,13.6458333 4.953125,13.765625 4.859375,13.859375 C4.765625,13.953125 4.64583333,14 4.5,14 L3.5,14 C3.35416667,14 3.234375,13.953125 3.140625,13.859375 C3.046875,13.765625 3,13.6458333 3,13.5 L3,12.75 L0.5,12.75 C0.354166667,12.75 0.234375,12.703125 0.140625,12.609375 C0.046875,12.515625 0,12.3958333 0,12.25 L0,11.75 C0,11.6041667 0.046875,11.484375 0.140625,11.390625 C0.234375,11.296875 0.354166667,11.25 0.5,11.25 L3,11.25 L3,10.5 C3,10.3541667 3.046875,10.234375 3.140625,10.140625 C3.234375,10.046875 3.35416667,10 3.5,10 L4.5,10 C4.64583333,10 4.765625,10.046875 4.859375,10.140625 C4.953125,10.234375 5,10.3541667 5,10.5 L5,11.25 L15.5,11.25 Z M15.5,6.25 C15.6458333,6.25 15.765625,6.296875 15.859375,6.390625 C15.953125,6.484375 16,6.60416667 16,6.75 L16,7.25 C16,7.39583333 15.953125,7.515625 15.859375,7.609375 C15.765625,7.703125 15.6458333,7.75 15.5,7.75 L13,7.75 L13,8.5 C13,8.64583333 12.953125,8.765625 12.859375,8.859375 C12.765625,8.953125 12.6458333,9 12.5,9 L11.5,9 C11.3541667,9 11.234375,8.953125 11.140625,8.859375 C11.046875,8.765625 11,8.64583333 11,8.5 L11,7.75 L0.5,7.75 C0.354166667,7.75 0.234375,7.703125 0.140625,7.609375 C0.046875,7.515625 0,7.39583333 0,7.25 L0,6.75 C0,6.60416667 0.046875,6.484375 0.140625,6.390625 C0.234375,6.296875 0.354166667,6.25 0.5,6.25 L11,6.25 L11,5.5 C11,5.35416667 11.046875,5.234375 11.140625,5.140625 C11.234375,5.046875 11.3541667,5 11.5,5 L12.5,5 C12.6458333,5 12.765625,5.046875 12.859375,5.140625 C12.953125,5.234375 13,5.35416667 13,5.5 L13,6.25 L15.5,6.25 Z" id="Shape"></path>
        </g>
    </g>
</svg>