<?xml version="1.0" encoding="UTF-8"?>
<svg width="24px" height="18px" viewBox="0 0 24 18" version="1.1" xmlns="http://www.w3.org/2000/svg" xmlns:xlink="http://www.w3.org/1999/xlink">
    <title>icon-email</title>
    <g id="icon-email" stroke="none" stroke-width="1" fill="none" fill-rule="evenodd">
        <path d="M21.75,0 C22.375,0 22.90625,0.21875 23.34375,0.65625 C23.78125,1.09375 24,1.625 24,2.25 L24,15.75 C24,16.375 23.78125,16.90625 23.34375,17.34375 C22.90625,17.78125 22.375,18 21.75,18 L2.25,18 C1.625,18 1.09375,17.78125 0.65625,17.34375 C0.21875,16.90625 0,16.375 0,15.75 L0,2.25 C0,1.625 0.21875,1.09375 0.65625,0.65625 C1.09375,0.21875 1.625,0 2.25,0 L21.75,0 Z M2.25,1.5 C2.03125,1.5 1.8515625,1.5703125 1.7109375,1.7109375 C1.5703125,1.8515625 1.5,2.03125 1.5,2.25 L1.5,4.171875 C2.59375,5.109375 4.953125,7.015625 8.578125,9.890625 C8.578125,9.890625 8.796875,10.0703125 9.234375,10.4296875 C9.671875,10.7890625 10,11.046875 10.21875,11.203125 C10.4375,11.359375 10.7265625,11.53125 11.0859375,11.71875 C11.4453125,11.90625 11.75,12 12,12 C12.21875,12 12.453125,11.953125 12.703125,11.859375 C12.953125,11.765625 13.2109375,11.625 13.4765625,11.4375 C13.7421875,11.25 13.9765625,11.078125 14.1796875,10.921875 C14.3828125,10.765625 14.625,10.5703125 14.90625,10.3359375 C15.1875,10.1015625 15.359375,9.953125 15.421875,9.890625 C19.046875,7.015625 21.40625,5.109375 22.5,4.171875 L22.5,2.25 C22.5,2.03125 22.4296875,1.8515625 22.2890625,1.7109375 C22.1484375,1.5703125 21.96875,1.5 21.75,1.5 L2.25,1.5 Z M21.75,16.5 C21.96875,16.5 22.1484375,16.4296875 22.2890625,16.2890625 C22.4296875,16.1484375 22.5,15.96875 22.5,15.75 L22.5,6.140625 C21.40625,7.015625 19.359375,8.65625 16.359375,11.0625 C16.296875,11.09375 16.0859375,11.265625 15.7265625,11.578125 C15.3671875,11.890625 15.078125,12.125 14.859375,12.28125 C14.640625,12.4375 14.359375,12.625 14.015625,12.84375 C13.671875,13.0625 13.328125,13.2265625 12.984375,13.3359375 C12.640625,13.4453125 12.3125,13.5 12,13.5 C11.71875,13.5 11.4296875,13.453125 11.1328125,13.359375 C10.8359375,13.265625 10.5703125,13.15625 10.3359375,13.03125 C10.1015625,12.90625 9.8359375,12.7421875 9.5390625,12.5390625 C9.2421875,12.3359375 9,12.1640625 8.8125,12.0234375 C8.625,11.8828125 8.40625,11.703125 8.15625,11.484375 C7.90625,11.265625 7.734375,11.125 7.640625,11.0625 C4.640625,8.65625 2.59375,7.015625 1.5,6.140625 L1.5,15.75 C1.5,15.96875 1.5703125,16.1484375 1.7109375,16.2890625 C1.8515625,16.4296875 2.03125,16.5 2.25,16.5 L21.75,16.5 Z" id="Shape" fill="#212529" fill-rule="nonzero"></path>
    </g>
</svg>