<?xml version="1.0" encoding="UTF-8"?>
<svg width="17px" height="16px" viewBox="0 0 17 16" version="1.1" xmlns="http://www.w3.org/2000/svg" xmlns:xlink="http://www.w3.org/1999/xlink">
    <title>icon-link</title>
    <g id="home-page" stroke="none" stroke-width="1" fill="none" fill-rule="evenodd">
        <g id="Desktop-HD" transform="translate(-109.000000, -572.000000)" fill="#212529" fill-rule="nonzero">
            <g id="icon-link" transform="translate(109.031250, 572.000000)">
                <path d="M9.8125,6.1875 C10.6041667,6.97916667 11.03125,7.9375 11.09375,9.0625 C11.15625,10.1875 10.8333333,11.1770833 10.125,12.03125 C10.0208333,12.15625 9.13541667,13.0520833 7.46875,14.71875 C6.61458333,15.5729167 5.58333333,16 4.375,16 C3.16666667,16 2.13541667,15.5729167 1.28125,14.71875 C0.427083333,13.8645833 0,12.8333333 0,11.625 C0,10.4166667 0.427083333,9.38541667 1.28125,8.53125 C1.65625,8.15625 2.05208333,7.76041667 2.46875,7.34375 C2.88541667,6.92708333 3.14583333,6.66666667 3.25,6.5625 C3.375,6.4375 3.515625,6.40625 3.671875,6.46875 C3.828125,6.53125 3.90625,6.64583333 3.90625,6.8125 C3.90625,7.20833333 3.95833333,7.60416667 4.0625,8 C4.08333333,8.125 4.04166667,8.23958333 3.9375,8.34375 L2.53125,9.78125 C2.01041667,10.28125 1.75,10.8958333 1.75,11.625 C1.75,12.3541667 2.00520833,12.9739583 2.515625,13.484375 C3.02604167,13.9947917 3.64583333,14.25 4.375,14.25 C5.10416667,14.25 5.71875,13.9895833 6.21875,13.46875 L8.59375,11.125 C9.09375,10.625 9.34375,10.0104167 9.34375,9.28125 C9.34375,8.55208333 9.09375,7.92708333 8.59375,7.40625 C8.38541667,7.19791667 8.14583333,7.03125 7.875,6.90625 C7.70833333,6.82291667 7.63541667,6.69791667 7.65625,6.53125 C7.69791667,6.15625 7.85416667,5.83333333 8.125,5.5625 L8.25,5.4375 C8.39583333,5.3125 8.54166667,5.29166667 8.6875,5.375 C9.10416667,5.58333333 9.47916667,5.85416667 9.8125,6.1875 Z M11.625,0 C12.8333333,0 13.8645833,0.427083333 14.71875,1.28125 C15.5729167,2.13541667 16,3.16666667 16,4.375 C16,5.58333333 15.5729167,6.61458333 14.71875,7.46875 C14.34375,7.84375 13.9479167,8.23958333 13.53125,8.65625 C13.1145833,9.07291667 12.8541667,9.33333333 12.75,9.4375 C12.625,9.5625 12.484375,9.59375 12.328125,9.53125 C12.171875,9.46875 12.09375,9.35416667 12.09375,9.1875 C12.09375,8.79166667 12.0416667,8.39583333 11.9375,8 C11.9166667,7.875 11.9583333,7.76041667 12.0625,7.65625 L13.46875,6.21875 C13.9895833,5.71875 14.25,5.10416667 14.25,4.375 C14.25,3.64583333 13.9947917,3.02604167 13.484375,2.515625 C12.9739583,2.00520833 12.3541667,1.75 11.625,1.75 C10.8958333,1.75 10.28125,2.01041667 9.78125,2.53125 L7.40625,4.875 C6.90625,5.375 6.65625,5.98958333 6.65625,6.71875 C6.65625,7.44791667 6.90625,8.07291667 7.40625,8.59375 C7.61458333,8.80208333 7.85416667,8.96875 8.125,9.09375 C8.29166667,9.17708333 8.36458333,9.30208333 8.34375,9.46875 C8.30208333,9.84375 8.14583333,10.1666667 7.875,10.4375 L7.75,10.5625 C7.60416667,10.6875 7.45833333,10.7083333 7.3125,10.625 C6.89583333,10.4166667 6.52083333,10.1458333 6.1875,9.8125 C5.39583333,9.02083333 4.96875,8.0625 4.90625,6.9375 C4.84375,5.8125 5.16666667,4.82291667 5.875,3.96875 C5.97916667,3.84375 6.86458333,2.94791667 8.53125,1.28125 C9.38541667,0.427083333 10.4166667,0 11.625,0 Z" id="Shape"></path>
            </g>
        </g>
    </g>
</svg>