<?xml version="1.0" encoding="UTF-8"?>
<svg width="16px" height="18px" viewBox="0 0 16 18" version="1.1" xmlns="http://www.w3.org/2000/svg" xmlns:xlink="http://www.w3.org/1999/xlink">
    <g id="icon-kids" stroke="none" stroke-width="1" fill="none" fill-rule="evenodd">
        <g id="" transform="translate(0.562500, 0.250000)" fill="#212529" fill-rule="nonzero">
            <path d="M12.4101562,2.53125 C13.0195312,2.53125 13.5410156,2.74804688 13.9746094,3.18164062 C14.4082031,3.61523438 14.625,4.1484375 14.625,4.78125 C14.625,5.4140625 14.4023438,5.94140625 13.9570312,6.36328125 L11.25,9.10546875 L11.25,16.03125 C11.25,16.5703125 11.0566406,17.0332031 10.6699219,17.4199219 C10.2832031,17.8066406 9.8203125,18 9.28125,18 L8.71875,18 C8.15625,18 7.6875,17.8007812 7.3125,17.4023438 C6.9375,17.8007812 6.46875,18 5.90625,18 L5.34375,18 C4.8046875,18 4.34179688,17.8066406 3.95507812,17.4199219 C3.56835938,17.0332031 3.375,16.5703125 3.375,16.03125 L3.375,9.10546875 L0.66796875,6.36328125 C0.22265625,5.94140625 0,5.4140625 0,4.78125 C0,4.1484375 0.216796875,3.61523438 0.650390625,3.18164062 C1.08398438,2.74804688 1.60546875,2.53125 2.21484375,2.53125 C2.82421875,2.53125 3.3984375,2.7890625 3.9375,3.3046875 C3.9609375,2.390625 4.30078125,1.61132812 4.95703125,0.966796875 C5.61328125,0.322265625 6.3984375,0 7.3125,0 C8.2265625,0 9.01171875,0.322265625 9.66796875,0.966796875 C10.3242188,1.61132812 10.6640625,2.390625 10.6875,3.3046875 C11.2265625,2.7890625 11.8007812,2.53125 12.4101562,2.53125 Z M8.89453125,1.79296875 C8.47265625,1.34765625 7.9453125,1.125 7.3125,1.125 C6.6796875,1.125 6.14648438,1.34179688 5.71289062,1.77539062 C5.27929688,2.20898438 5.0625,2.7421875 5.0625,3.375 C5.0625,4.0078125 5.27929688,4.54101562 5.71289062,4.97460938 C6.14648438,5.40820312 6.6796875,5.625 7.3125,5.625 C7.9453125,5.625 8.47851562,5.40820312 8.91210938,4.97460938 C9.34570312,4.54101562 9.5625,4.0078125 9.5625,3.375 C9.5625,2.7421875 9.33984375,2.21484375 8.89453125,1.79296875 Z M13.1835938,5.58984375 C13.3945312,5.35546875 13.5,5.0859375 13.5,4.78125 C13.5,4.4765625 13.3886719,4.21289062 13.1660156,3.99023438 C12.9433594,3.76757812 12.6796875,3.65625 12.375,3.65625 C12.0703125,3.65625 11.8007812,3.76171875 11.5664062,3.97265625 L8.82421875,6.75 L5.80078125,6.75 L3.05859375,3.97265625 C2.82421875,3.76171875 2.5546875,3.65625 2.25,3.65625 C1.9453125,3.65625 1.68164062,3.76757812 1.45898438,3.99023438 C1.23632812,4.21289062 1.125,4.4765625 1.125,4.78125 C1.125,5.0859375 1.23046875,5.35546875 1.44140625,5.58984375 L4.5,8.61328125 L4.5,16.03125 C4.5,16.265625 4.58203125,16.4648438 4.74609375,16.6289062 C4.91015625,16.7929688 5.109375,16.875 5.34375,16.875 L5.90625,16.875 C6.140625,16.875 6.33984375,16.7929688 6.50390625,16.6289062 C6.66796875,16.4648438 6.75,16.265625 6.75,16.03125 L6.75,12.09375 L7.875,12.09375 L7.875,16.03125 C7.875,16.265625 7.95703125,16.4648438 8.12109375,16.6289062 C8.28515625,16.7929688 8.484375,16.875 8.71875,16.875 L9.28125,16.875 C9.515625,16.875 9.71484375,16.7929688 9.87890625,16.6289062 C10.0429688,16.4648438 10.125,16.265625 10.125,16.03125 L10.125,8.61328125 L13.1835938,5.58984375 Z" id="Shape"></path>
        </g>
    </g>
</svg>