<?xml version="1.0" encoding="UTF-8"?>
<svg width="16px" height="18px" viewBox="0 0 16 18" version="1.1" xmlns="http://www.w3.org/2000/svg" xmlns:xlink="http://www.w3.org/1999/xlink">
    <g id="icon-students" stroke="none" stroke-width="1" fill="none" fill-rule="evenodd">
        <g id="ï”" transform="translate(0.035156, 0.250000)" fill="#212529" fill-rule="nonzero">
            <path d="M11.2148438,11.2851562 C11.4257812,11.2851562 11.671875,11.3144531 11.953125,11.3730469 C12.234375,11.4316406 12.6152344,11.5664062 13.0957031,11.7773438 C13.5761719,11.9882812 13.9980469,12.2636719 14.3613281,12.6035156 C14.7246094,12.9433594 15.046875,13.4355469 15.328125,14.0800781 C15.609375,14.7246094 15.75,15.46875 15.75,16.3125 C15.75,16.78125 15.5859375,17.1796875 15.2578125,17.5078125 C14.9296875,17.8359375 14.53125,18 14.0625,18 L1.6875,18 C1.21875,18 0.8203125,17.8359375 0.4921875,17.5078125 C0.1640625,17.1796875 0,16.78125 0,16.3125 C0,15.46875 0.140625,14.7246094 0.421875,14.0800781 C0.703125,13.4355469 1.02539062,12.9433594 1.38867188,12.6035156 C1.75195312,12.2636719 2.17382812,11.9882812 2.65429688,11.7773438 C3.13476562,11.5664062 3.515625,11.4316406 3.796875,11.3730469 C4.078125,11.3144531 4.32421875,11.2851562 4.53515625,11.2851562 L7.875,14.0625 L11.2148438,11.2851562 Z M7.3125,16.875 L7.3125,15.046875 L4.1484375,12.4453125 C4.0078125,12.46875 3.890625,12.4921875 3.796875,12.515625 C3.703125,12.5390625 3.46875,12.6386719 3.09375,12.8144531 C2.71875,12.9902344 2.40820312,13.2011719 2.16210938,13.4472656 C1.91601562,13.6933594 1.68164062,14.0683594 1.45898438,14.5722656 C1.23632812,15.0761719 1.125,15.65625 1.125,16.3125 C1.125,16.4765625 1.17773438,16.6113281 1.28320312,16.7167969 C1.38867188,16.8222656 1.5234375,16.875 1.6875,16.875 L7.3125,16.875 Z M14.625,16.3125 C14.625,15.65625 14.5136719,15.0761719 14.2910156,14.5722656 C14.0683594,14.0683594 13.8339844,13.6933594 13.5878906,13.4472656 C13.3417969,13.2011719 13.03125,12.9902344 12.65625,12.8144531 C12.28125,12.6386719 12.046875,12.5390625 11.953125,12.515625 C11.859375,12.4921875 11.7421875,12.46875 11.6015625,12.4453125 L8.4375,15.046875 L8.4375,16.875 L14.0625,16.875 C14.2265625,16.875 14.3613281,16.8222656 14.4667969,16.7167969 C14.5722656,16.6113281 14.625,16.4765625 14.625,16.3125 Z M0.45703125,3.515625 C0.15234375,3.421875 0,3.1875 0,2.8125 C0,2.4375 0.15234375,2.203125 0.45703125,2.109375 L7.27734375,0.0703125 C7.46484375,0.0234375 7.6640625,0 7.875,0 C8.0859375,0 8.28515625,0.0234375 8.47265625,0.0703125 L15.2929688,2.109375 C15.5976562,2.203125 15.75,2.4375 15.75,2.8125 C15.75,3.1875 15.5976562,3.421875 15.2929688,3.515625 L12.5507812,4.32421875 C12.8085938,4.93359375 12.9375,5.5546875 12.9375,6.1875 C12.9375,7.59375 12.4453125,8.7890625 11.4609375,9.7734375 C10.4765625,10.7578125 9.28125,11.25 7.875,11.25 C6.46875,11.25 5.2734375,10.7578125 4.2890625,9.7734375 C3.3046875,8.7890625 2.8125,7.59375 2.8125,6.1875 C2.8125,5.5546875 2.94140625,4.93359375 3.19921875,4.32421875 L1.546875,3.83203125 L1.546875,4.921875 C1.828125,5.0859375 1.96875,5.3203125 1.96875,5.625 C1.96875,5.90625 1.83984375,6.140625 1.58203125,6.328125 L2.109375,8.5078125 C2.1328125,8.6015625 2.13867188,8.68359375 2.12695312,8.75390625 C2.11523438,8.82421875 2.0859375,8.8828125 2.0390625,8.9296875 C1.9921875,8.9765625 1.93359375,9 1.86328125,9 L0.38671875,9 C0.29296875,9 0.216796875,8.94726562 0.158203125,8.84179688 C0.099609375,8.73632812 0.09375,8.625 0.140625,8.5078125 L0.66796875,6.328125 C0.41015625,6.140625 0.28125,5.90625 0.28125,5.625 C0.28125,5.3203125 0.421875,5.0859375 0.703125,4.921875 L0.703125,3.5859375 L0.45703125,3.515625 Z M5.09765625,8.96484375 C5.87109375,9.73828125 6.796875,10.125 7.875,10.125 C8.953125,10.125 9.87890625,9.73828125 10.6523438,8.96484375 C11.4257812,8.19140625 11.8125,7.265625 11.8125,6.1875 C11.8125,5.671875 11.6953125,5.15625 11.4609375,4.640625 L8.47265625,5.5546875 C8.07421875,5.671875 7.67578125,5.671875 7.27734375,5.5546875 L4.2890625,4.640625 C4.0546875,5.15625 3.9375,5.671875 3.9375,6.1875 C3.9375,7.265625 4.32421875,8.19140625 5.09765625,8.96484375 Z M7.59375,1.16015625 L2.0390625,2.8125 L7.59375,4.46484375 C7.7578125,4.51171875 7.9453125,4.51171875 8.15625,4.46484375 L13.7109375,2.8125 L8.15625,1.16015625 C7.9921875,1.11328125 7.8046875,1.11328125 7.59375,1.16015625 Z" id="Shape"></path>
        </g>
    </g>
</svg>