<?xml version="1.0" encoding="UTF-8"?>
<svg width="23px" height="21px" viewBox="0 0 23 21" version="1.1" xmlns="http://www.w3.org/2000/svg" xmlns:xlink="http://www.w3.org/1999/xlink">
    <title>icon-id-card</title>
    <g id="icon-id-card" stroke="none" stroke-width="1" fill="none" fill-rule="evenodd">
        <g transform="translate(0.000000, 1.750000)" fill="#212529" fill-rule="nonzero" id="">
            <path d="M14.0625,11.25 C13.8541667,11.25 13.75,11.1458333 13.75,10.9375 L13.75,10.3125 C13.75,10.1041667 13.8541667,10 14.0625,10 L18.4375,10 C18.6458333,10 18.75,10.1041667 18.75,10.3125 L18.75,10.9375 C18.75,11.1458333 18.6458333,11.25 18.4375,11.25 L14.0625,11.25 Z M14.0625,8.75 C13.8541667,8.75 13.75,8.64583333 13.75,8.4375 L13.75,7.8125 C13.75,7.60416667 13.8541667,7.5 14.0625,7.5 L18.4375,7.5 C18.6458333,7.5 18.75,7.60416667 18.75,7.8125 L18.75,8.4375 C18.75,8.64583333 18.6458333,8.75 18.4375,8.75 L14.0625,8.75 Z M14.0625,13.75 C13.8541667,13.75 13.75,13.6458333 13.75,13.4375 L13.75,12.8125 C13.75,12.6041667 13.8541667,12.5 14.0625,12.5 L18.4375,12.5 C18.6458333,12.5 18.75,12.6041667 18.75,12.8125 L18.75,13.4375 C18.75,13.6458333 18.6458333,13.75 18.4375,13.75 L14.0625,13.75 Z M9.6875,11.6015625 C9.08854167,12.2005208 8.359375,12.5 7.5,12.5 C6.640625,12.5 5.90494792,12.1940104 5.29296875,11.5820312 C4.68098958,10.9700521 4.375,10.234375 4.375,9.375 C4.375,8.515625 4.68098958,7.77994792 5.29296875,7.16796875 C5.90494792,6.55598958 6.640625,6.25 7.5,6.25 C8.359375,6.25 9.09505208,6.55598958 9.70703125,7.16796875 C10.3190104,7.77994792 10.625,8.515625 10.625,9.375 C10.625,10.234375 10.3125,10.9765625 9.6875,11.6015625 Z M8.828125,8.046875 C8.46354167,7.68229167 8.02083333,7.5 7.5,7.5 C6.97916667,7.5 6.53645833,7.68229167 6.171875,8.046875 C5.80729167,8.41145833 5.625,8.85416667 5.625,9.375 C5.625,9.89583333 5.80729167,10.3385417 6.171875,10.703125 C6.53645833,11.0677083 6.97916667,11.25 7.5,11.25 C8.02083333,11.25 8.46354167,11.0677083 8.828125,10.703125 C9.19270833,10.3385417 9.375,9.89583333 9.375,9.375 C9.375,8.85416667 9.19270833,8.41145833 8.828125,8.046875 Z M20,0 C20.6770833,0 21.2630208,0.247395833 21.7578125,0.7421875 C22.2526042,1.23697917 22.5,1.82291667 22.5,2.5 L22.5,15 C22.5,15.6770833 22.2526042,16.2630208 21.7578125,16.7578125 C21.2630208,17.2526042 20.6770833,17.5 20,17.5 L2.5,17.5 C1.82291667,17.5 1.23697917,17.2526042 0.7421875,16.7578125 C0.247395833,16.2630208 0,15.6770833 0,15 L0,2.5 C0,1.82291667 0.247395833,1.23697917 0.7421875,0.7421875 C1.23697917,0.247395833 1.82291667,0 2.5,0 L20,0 Z M10.625,16.25 L10.625,15.6640625 C10.625,15.3776042 10.546875,15.1171875 10.390625,14.8828125 C10.15625,14.5442708 9.8046875,14.375 9.3359375,14.375 C9.20572917,14.375 8.96484375,14.4205729 8.61328125,14.5117188 C8.26171875,14.6028646 7.890625,14.6484375 7.5,14.6484375 C7.109375,14.6484375 6.73828125,14.6028646 6.38671875,14.5117188 C6.03515625,14.4205729 5.79427083,14.375 5.6640625,14.375 C5.1953125,14.375 4.84375,14.5442708 4.609375,14.8828125 C4.453125,15.1171875 4.375,15.3776042 4.375,15.6640625 L4.375,16.25 L10.625,16.25 Z M21.25,15 L21.25,5 L1.25,5 L1.25,15 C1.25,15.3385417 1.37369792,15.6315104 1.62109375,15.8789062 C1.86848958,16.1263021 2.16145833,16.25 2.5,16.25 L3.125,16.25 L3.125,15.6640625 C3.125,15.1171875 3.26822917,14.6223958 3.5546875,14.1796875 C4.04947917,13.4765625 4.75260417,13.125 5.6640625,13.125 C5.92447917,13.125 6.21744792,13.1705729 6.54296875,13.2617188 C6.86848958,13.3528646 7.1875,13.3984375 7.5,13.3984375 C7.8125,13.3984375 8.13151042,13.3528646 8.45703125,13.2617188 C8.78255208,13.1705729 9.07552083,13.125 9.3359375,13.125 C10.2473958,13.125 10.9505208,13.4765625 11.4453125,14.1796875 C11.7317708,14.6223958 11.875,15.1171875 11.875,15.6640625 L11.875,16.25 L20,16.25 C20.3385417,16.25 20.6315104,16.1263021 20.8789062,15.8789062 C21.1263021,15.6315104 21.25,15.3385417 21.25,15 Z M21.25,3.75 L21.25,2.5 C21.25,2.16145833 21.1263021,1.86848958 20.8789062,1.62109375 C20.6315104,1.37369792 20.3385417,1.25 20,1.25 L2.5,1.25 C2.16145833,1.25 1.86848958,1.37369792 1.62109375,1.62109375 C1.37369792,1.86848958 1.25,2.16145833 1.25,2.5 L1.25,3.75 L21.25,3.75 Z"></path>
        </g>
    </g>
</svg>