<?xml version="1.0" encoding="UTF-8"?>
<svg width="30px" height="24px" viewBox="0 0 30 24" version="1.1" xmlns="http://www.w3.org/2000/svg" xmlns:xlink="http://www.w3.org/1999/xlink">
    <title>icon-group</title>
    <g id="icon-group" stroke="none" stroke-width="1" fill="none" fill-rule="evenodd">
        <g transform="translate(0.000000, 1.500000)" fill="#000000" fill-rule="nonzero" id="">
            <path d="M28.125,7.921875 C27.40625,8.640625 26.53125,9 25.5,9 C24.46875,9 23.5859375,8.6328125 22.8515625,7.8984375 C22.1171875,7.1640625 21.75,6.28125 21.75,5.25 C21.75,4.21875 22.1171875,3.3359375 22.8515625,2.6015625 C23.5859375,1.8671875 24.46875,1.5 25.5,1.5 C26.53125,1.5 27.4140625,1.8671875 28.1484375,2.6015625 C28.8828125,3.3359375 29.25,4.21875 29.25,5.25 C29.25,6.28125 28.875,7.171875 28.125,7.921875 Z M27.09375,3.65625 C26.65625,3.21875 26.125,3 25.5,3 C24.875,3 24.34375,3.21875 23.90625,3.65625 C23.46875,4.09375 23.25,4.625 23.25,5.25 C23.25,5.875 23.46875,6.40625 23.90625,6.84375 C24.34375,7.28125 24.875,7.5 25.5,7.5 C26.125,7.5 26.65625,7.28125 27.09375,6.84375 C27.53125,6.40625 27.75,5.875 27.75,5.25 C27.75,4.625 27.53125,4.09375 27.09375,3.65625 Z M18.703125,8.953125 C17.671875,9.984375 16.4375,10.5 15,10.5 C13.5625,10.5 12.328125,9.984375 11.296875,8.953125 C10.265625,7.921875 9.75,6.6875 9.75,5.25 C9.75,3.8125 10.265625,2.578125 11.296875,1.546875 C12.328125,0.515625 13.5625,0 15,0 C16.4375,0 17.671875,0.515625 18.703125,1.546875 C19.734375,2.578125 20.25,3.8125 20.25,5.25 C20.25,6.6875 19.734375,7.921875 18.703125,8.953125 Z M17.625,2.625 C16.90625,1.875 16.03125,1.5 15,1.5 C13.96875,1.5 13.0859375,1.8671875 12.3515625,2.6015625 C11.6171875,3.3359375 11.25,4.21875 11.25,5.25 C11.25,6.28125 11.6171875,7.1640625 12.3515625,7.8984375 C13.0859375,8.6328125 13.96875,9 15,9 C16.03125,9 16.9140625,8.6328125 17.6484375,7.8984375 C18.3828125,7.1640625 18.75,6.28125 18.75,5.25 C18.75,4.21875 18.375,3.34375 17.625,2.625 Z M26.4375,10.5 C27.40625,10.5 28.2421875,10.8671875 28.9453125,11.6015625 C29.6484375,12.3359375 30,13.21875 30,14.25 C30,14.46875 29.9296875,14.6484375 29.7890625,14.7890625 C29.6484375,14.9296875 29.46875,15 29.25,15 C29.03125,15 28.8515625,14.9296875 28.7109375,14.7890625 C28.5703125,14.6484375 28.5,14.46875 28.5,14.25 C28.5,13.625 28.296875,13.09375 27.890625,12.65625 C27.484375,12.21875 27,12 26.4375,12 L24.5625,12 C24.3125,12 24.0625,12.046875 23.8125,12.140625 C23.46875,11.765625 23.078125,11.421875 22.640625,11.109375 C23.234375,10.703125 23.875,10.5 24.5625,10.5 L26.4375,10.5 Z M7.125,7.921875 C6.40625,8.640625 5.53125,9 4.5,9 C3.46875,9 2.5859375,8.6328125 1.8515625,7.8984375 C1.1171875,7.1640625 0.75,6.28125 0.75,5.25 C0.75,4.21875 1.1171875,3.3359375 1.8515625,2.6015625 C2.5859375,1.8671875 3.46875,1.5 4.5,1.5 C5.53125,1.5 6.4140625,1.8671875 7.1484375,2.6015625 C7.8828125,3.3359375 8.25,4.21875 8.25,5.25 C8.25,6.28125 7.875,7.171875 7.125,7.921875 Z M6.09375,3.65625 C5.65625,3.21875 5.125,3 4.5,3 C3.875,3 3.34375,3.21875 2.90625,3.65625 C2.46875,4.09375 2.25,4.625 2.25,5.25 C2.25,5.875 2.46875,6.40625 2.90625,6.84375 C3.34375,7.28125 3.875,7.5 4.5,7.5 C5.125,7.5 5.65625,7.28125 6.09375,6.84375 C6.53125,6.40625 6.75,5.875 6.75,5.25 C6.75,4.625 6.53125,4.09375 6.09375,3.65625 Z M18.75,11.4375 C20.65625,11.4375 22.09375,12.171875 23.0625,13.640625 C23.6875,14.546875 24,15.546875 24,16.640625 L24,18.75 C24,19.375 23.78125,19.90625 23.34375,20.34375 C22.90625,20.78125 22.375,21 21.75,21 L8.25,21 C7.625,21 7.09375,20.78125 6.65625,20.34375 C6.21875,19.90625 6,19.375 6,18.75 L6,16.640625 C6,15.546875 6.3125,14.546875 6.9375,13.640625 C7.90625,12.171875 9.34375,11.4375 11.25,11.4375 C11.75,11.4375 12.34375,11.53125 13.03125,11.71875 C13.71875,11.90625 14.375,12 15,12 C15.625,12 16.28125,11.90625 16.96875,11.71875 C17.65625,11.53125 18.25,11.4375 18.75,11.4375 Z M22.5,18.75 L22.5,16.640625 C22.5,15.859375 22.28125,15.140625 21.84375,14.484375 C21.15625,13.453125 20.125,12.9375 18.75,12.9375 C18.375,12.9375 17.8359375,13.03125 17.1328125,13.21875 C16.4296875,13.40625 15.71875,13.5 15,13.5 C14.28125,13.5 13.5703125,13.40625 12.8671875,13.21875 C12.1640625,13.03125 11.625,12.9375 11.25,12.9375 C9.875,12.9375 8.84375,13.453125 8.15625,14.484375 C7.71875,15.140625 7.5,15.859375 7.5,16.640625 L7.5,18.75 C7.5,18.96875 7.5703125,19.1484375 7.7109375,19.2890625 C7.8515625,19.4296875 8.03125,19.5 8.25,19.5 L21.75,19.5 C21.96875,19.5 22.1484375,19.4296875 22.2890625,19.2890625 C22.4296875,19.1484375 22.5,18.96875 22.5,18.75 Z M7.359375,11.109375 C6.921875,11.421875 6.53125,11.765625 6.1875,12.140625 C5.9375,12.046875 5.6875,12 5.4375,12 L3.5625,12 C3,12 2.515625,12.21875 2.109375,12.65625 C1.703125,13.09375 1.5,13.625 1.5,14.25 C1.5,14.46875 1.4296875,14.6484375 1.2890625,14.7890625 C1.1484375,14.9296875 0.96875,15 0.75,15 C0.53125,15 0.3515625,14.9296875 0.2109375,14.7890625 C0.0703125,14.6484375 0,14.46875 0,14.25 C0,13.21875 0.3515625,12.3359375 1.0546875,11.6015625 C1.7578125,10.8671875 2.59375,10.5 3.5625,10.5 L5.4375,10.5 C6.125,10.5 6.765625,10.703125 7.359375,11.109375 Z"></path>
        </g>
    </g>
</svg>