<?xml version="1.0" encoding="UTF-8"?>
<svg width="16px" height="16px" viewBox="0 0 16 16" version="1.1" xmlns="http://www.w3.org/2000/svg" xmlns:xlink="http://www.w3.org/1999/xlink">
    <g id="icon-search" stroke="none" stroke-width="1" fill="none" fill-rule="evenodd">
        <g fill="#212529" fill-rule="nonzero" id="">
            <path d="M15.875,14.65625 C16.0625,14.8229167 16.0625,15 15.875,15.1875 L15.1875,15.875 C15,16.0625 14.8229167,16.0625 14.65625,15.875 L10.875,12.09375 C10.7916667,12.0104167 10.75,11.9270833 10.75,11.84375 L10.75,11.40625 C9.52083333,12.46875 8.10416667,13 6.5,13 C4.70833333,13 3.17708333,12.3645833 1.90625,11.09375 C0.635416667,9.82291667 0,8.29166667 0,6.5 C0,4.70833333 0.635416667,3.17708333 1.90625,1.90625 C3.17708333,0.635416667 4.70833333,0 6.5,0 C8.29166667,0 9.82291667,0.635416667 11.09375,1.90625 C12.3645833,3.17708333 13,4.70833333 13,6.5 C13,8.10416667 12.46875,9.52083333 11.40625,10.75 L11.84375,10.75 C11.9479167,10.75 12.03125,10.7916667 12.09375,10.875 L15.875,14.65625 Z M2.96875,10.03125 C3.94791667,11.0104167 5.125,11.5 6.5,11.5 C7.875,11.5 9.05208333,11.0104167 10.03125,10.03125 C11.0104167,9.05208333 11.5,7.875 11.5,6.5 C11.5,5.125 11.0104167,3.94791667 10.03125,2.96875 C9.05208333,1.98958333 7.875,1.5 6.5,1.5 C5.125,1.5 3.94791667,1.98958333 2.96875,2.96875 C1.98958333,3.94791667 1.5,5.125 1.5,6.5 C1.5,7.875 1.98958333,9.05208333 2.96875,10.03125 Z"></path>
        </g>
    </g>
</svg>