<?xml version="1.0" encoding="UTF-8"?>
<svg width="21px" height="24px" viewBox="0 0 21 24" version="1.1" xmlns="http://www.w3.org/2000/svg" xmlns:xlink="http://www.w3.org/1999/xlink">
    <title>icon-booking</title>
    <g id="icon-booking" stroke="none" stroke-width="1" fill="none" fill-rule="evenodd">
        <path d="M18.75,3 C19.375,3 19.90625,3.21875 20.34375,3.65625 C20.78125,4.09375 21,4.625 21,5.25 L21,21.75 C21,22.375 20.78125,22.90625 20.34375,23.34375 C19.90625,23.78125 19.375,24 18.75,24 L2.25,24 C1.625,24 1.09375,23.78125 0.65625,23.34375 C0.21875,22.90625 0,22.375 0,21.75 L0,5.25 C0,4.625 0.21875,4.09375 0.65625,3.65625 C1.09375,3.21875 1.625,3 2.25,3 L4.5,3 L4.5,0.375 C4.5,0.125 4.625,0 4.875,0 L5.625,0 C5.875,0 6,0.125 6,0.375 L6,3 L15,3 L15,0.375 C15,0.125 15.125,0 15.375,0 L16.125,0 C16.375,0 16.5,0.125 16.5,0.375 L16.5,3 L18.75,3 Z M19.5,21.75 L19.5,9 L1.5,9 L1.5,21.75 C1.5,21.96875 1.5703125,22.1484375 1.7109375,22.2890625 C1.8515625,22.4296875 2.03125,22.5 2.25,22.5 L18.75,22.5 C18.96875,22.5 19.1484375,22.4296875 19.2890625,22.2890625 C19.4296875,22.1484375 19.5,21.96875 19.5,21.75 Z M19.5,7.5 L19.5,5.25 C19.5,5.03125 19.4296875,4.8515625 19.2890625,4.7109375 C19.1484375,4.5703125 18.96875,4.5 18.75,4.5 L2.25,4.5 C2.03125,4.5 1.8515625,4.5703125 1.7109375,4.7109375 C1.5703125,4.8515625 1.5,5.03125 1.5,5.25 L1.5,7.5 L19.5,7.5 Z M5.25,18 C5.03125,18 4.8515625,17.9296875 4.7109375,17.7890625 C4.5703125,17.6484375 4.5,17.46875 4.5,17.25 L4.5,12.75 C4.5,12.53125 4.5703125,12.3515625 4.7109375,12.2109375 C4.8515625,12.0703125 5.03125,12 5.25,12 L9.75,12 C9.96875,12 10.1484375,12.0703125 10.2890625,12.2109375 C10.4296875,12.3515625 10.5,12.53125 10.5,12.75 L10.5,17.25 C10.5,17.46875 10.4296875,17.6484375 10.2890625,17.7890625 C10.1484375,17.9296875 9.96875,18 9.75,18 L5.25,18 Z M6,13.5 L6,16.5 L9,16.5 L9,13.5 L6,13.5 Z" id="Shape" fill="#212529" fill-rule="nonzero"></path>
    </g>
</svg>