<?xml version="1.0" encoding="UTF-8"?>
<svg width="18px" height="16px" viewBox="0 0 18 16" version="1.1" xmlns="http://www.w3.org/2000/svg" xmlns:xlink="http://www.w3.org/1999/xlink">
    <title>icon-map-view</title>
    <g id="icon-map-view" stroke="none" stroke-width="1" fill="none" fill-rule="evenodd">
        <g id="" fill="#212529" fill-rule="nonzero">
            <path d="M10.53125,3.40625 C10.6770833,3.55208333 10.75,3.72916667 10.75,3.9375 C10.75,4.14583333 10.6770833,4.32291667 10.53125,4.46875 C10.3854167,4.61458333 10.2083333,4.6875 10,4.6875 C9.79166667,4.6875 9.61458333,4.61458333 9.46875,4.46875 C9.32291667,4.32291667 9.25,4.14583333 9.25,3.9375 C9.25,3.72916667 9.32291667,3.55208333 9.46875,3.40625 C9.61458333,3.26041667 9.79166667,3.1875 10,3.1875 C10.2083333,3.1875 10.3854167,3.26041667 10.53125,3.40625 Z M10.4375,10.8125 C10.3125,10.9375 10.1666667,11 10,11 C9.83333333,11 9.6875,10.9375 9.5625,10.8125 C9.04166667,10.2083333 8.52604167,9.58333333 8.015625,8.9375 C7.50520833,8.29166667 6.97395833,7.48958333 6.421875,6.53125 C5.86979167,5.57291667 5.59375,4.80208333 5.59375,4.21875 C5.59375,3.05208333 6.02604167,2.05729167 6.890625,1.234375 C7.75520833,0.411458333 8.79166667,0 10,0 C10.6041667,0 11.1770833,0.109375 11.71875,0.328125 C12.2604167,0.546875 12.7291667,0.848958333 13.125,1.234375 C13.5208333,1.61979167 13.8333333,2.07291667 14.0625,2.59375 C14.2916667,3.11458333 14.40625,3.66145833 14.40625,4.234375 C14.40625,4.80729167 14.1302083,5.57291667 13.578125,6.53125 C13.0260417,7.48958333 12.4947917,8.29166667 11.984375,8.9375 C11.4739583,9.58333333 10.9583333,10.2083333 10.4375,10.8125 Z M10,1.5 C9.47916667,1.5 8.99479167,1.61979167 8.546875,1.859375 C8.09895833,2.09895833 7.74479167,2.43229167 7.484375,2.859375 C7.22395833,3.28645833 7.09375,3.73958333 7.09375,4.21875 C7.09375,4.57291667 7.34895833,5.18229167 7.859375,6.046875 C8.36979167,6.91145833 9.08333333,7.89583333 10,9 C10.9166667,7.89583333 11.6302083,6.91145833 12.140625,6.046875 C12.6510417,5.18229167 12.90625,4.57291667 12.90625,4.21875 C12.90625,3.46875 12.6197917,2.828125 12.046875,2.296875 C11.4739583,1.765625 10.7916667,1.5 10,1.5 Z M17.5,5 C17.625,5 17.7395833,5.046875 17.84375,5.140625 C17.9479167,5.234375 18,5.35416667 18,5.5 L18,13.3125 C18,13.7708333 17.7916667,14.0833333 17.375,14.25 L12.625,15.90625 C12.2083333,16.03125 11.7916667,16.03125 11.375,15.90625 L6,14 L0.6875,15.96875 C0.625,15.9895833 0.5625,16 0.5,16 C0.375,16 0.260416667,15.953125 0.15625,15.859375 C0.0520833333,15.765625 0,15.6458333 0,15.5 L0,7.6875 C0,7.22916667 0.208333333,6.91666667 0.625,6.75 L4.78125,5.3125 C4.92708333,5.75 5.125,6.20833333 5.375,6.6875 L1.5,8.03125 L1.5,14.0625 L5.46875,12.59375 L5.5,12.59375 L5.5,6.96875 C5.875,7.65625 6.375,8.40625 7,9.21875 L7,12.75 L11,14.1875 L11,11.625 C11.0833333,11.5625 11.1458333,11.5104167 11.1875,11.46875 C11.625,10.96875 12.0625,10.4375 12.5,9.875 L12.5,14.375 L16.5,12.96875 L16.5,6.9375 L13.9375,7.875 C14.4166667,7.14583333 14.7708333,6.47916667 15,5.875 L17.3125,5.03125 C17.375,5.01041667 17.4375,5 17.5,5 Z" id="Shape"></path>
        </g>
    </g>
</svg>