<?xml version="1.0" encoding="UTF-8"?>
<svg width="15px" height="21px" viewBox="0 0 15 21" version="1.1" xmlns="http://www.w3.org/2000/svg" xmlns:xlink="http://www.w3.org/1999/xlink">
    <g id="icon-map-marker" stroke="none" stroke-width="1" fill="none" fill-rule="evenodd">
        <g transform="translate(0.000000, 0.500000)" fill="#212529" fill-rule="nonzero" id="ï…">
            <path d="M4.84375,4.84375 C5.57291667,4.11458333 6.45833333,3.75 7.5,3.75 C8.54166667,3.75 9.42708333,4.11458333 10.15625,4.84375 C10.8854167,5.57291667 11.25,6.45833333 11.25,7.5 C11.25,8.54166667 10.8854167,9.42708333 10.15625,10.15625 C9.42708333,10.8854167 8.54166667,11.25 7.5,11.25 C6.45833333,11.25 5.57291667,10.8854167 4.84375,10.15625 C4.11458333,9.42708333 3.75,8.54166667 3.75,7.5 C3.75,6.45833333 4.11458333,5.57291667 4.84375,4.84375 Z M5.7421875,9.2578125 C6.23697917,9.75260417 6.82291667,10 7.5,10 C8.17708333,10 8.76302083,9.75260417 9.2578125,9.2578125 C9.75260417,8.76302083 10,8.17708333 10,7.5 C10,6.82291667 9.75260417,6.23697917 9.2578125,5.7421875 C8.76302083,5.24739583 8.17708333,5 7.5,5 C6.82291667,5 6.23697917,5.24739583 5.7421875,5.7421875 C5.24739583,6.23697917 5,6.82291667 5,7.5 C5,8.17708333 5.24739583,8.76302083 5.7421875,9.2578125 Z M2.1875,2.1875 C3.64583333,0.729166667 5.41666667,0 7.5,0 C9.58333333,0 11.3541667,0.729166667 12.8125,2.1875 C14.2708333,3.64583333 15,5.41666667 15,7.5 C15,7.94270833 14.9804688,8.32682292 14.9414062,8.65234375 C14.9023438,8.97786458 14.7981771,9.36197917 14.6289062,9.8046875 C14.4596354,10.2473958 14.3033854,10.6119792 14.1601562,10.8984375 C14.0169271,11.1848958 13.7239583,11.6731771 13.28125,12.3632812 C12.8385417,13.0533854 12.4479167,13.6328125 12.109375,14.1015625 C11.7708333,14.5703125 11.2044271,15.3776042 10.4101562,16.5234375 C9.61588542,17.6692708 8.90625,18.6979167 8.28125,19.609375 C8.09895833,19.8697917 7.83854167,20 7.5,20 C7.16145833,20 6.90104167,19.8697917 6.71875,19.609375 C6.09375,18.6979167 5.38411458,17.6692708 4.58984375,16.5234375 C3.79557292,15.3776042 3.22916667,14.5703125 2.890625,14.1015625 C2.55208333,13.6328125 2.16145833,13.0533854 1.71875,12.3632812 C1.27604167,11.6731771 0.983072917,11.1848958 0.83984375,10.8984375 C0.696614583,10.6119792 0.540364583,10.2473958 0.37109375,9.8046875 C0.201822917,9.36197917 0.09765625,8.97786458 0.05859375,8.65234375 C0.01953125,8.32682292 0,7.94270833 0,7.5 C0,5.41666667 0.729166667,3.64583333 2.1875,2.1875 Z M7.5,18.515625 C8.046875,17.7083333 8.65234375,16.8359375 9.31640625,15.8984375 C9.98046875,14.9609375 10.46875,14.2643229 10.78125,13.8085938 C11.09375,13.3528646 11.4518229,12.8385417 11.8554688,12.265625 C12.2591146,11.6927083 12.5390625,11.2630208 12.6953125,10.9765625 C12.8515625,10.6901042 13.0208333,10.3776042 13.203125,10.0390625 C13.3854167,9.70052083 13.5026042,9.40755208 13.5546875,9.16015625 C13.6067708,8.91276042 13.6523438,8.65885417 13.6914062,8.3984375 C13.7304688,8.13802083 13.75,7.83854167 13.75,7.5 C13.75,5.78125 13.1380208,4.30989583 11.9140625,3.0859375 C10.6901042,1.86197917 9.21875,1.25 7.5,1.25 C5.78125,1.25 4.30989583,1.86197917 3.0859375,3.0859375 C1.86197917,4.30989583 1.25,5.78125 1.25,7.5 C1.25,7.83854167 1.26953125,8.13802083 1.30859375,8.3984375 C1.34765625,8.65885417 1.39322917,8.91276042 1.4453125,9.16015625 C1.49739583,9.40755208 1.61458333,9.70052083 1.796875,10.0390625 C1.97916667,10.3776042 2.1484375,10.6901042 2.3046875,10.9765625 C2.4609375,11.2630208 2.74088542,11.6927083 3.14453125,12.265625 C3.54817708,12.8385417 3.90625,13.3528646 4.21875,13.8085938 C4.53125,14.2643229 5.01953125,14.9609375 5.68359375,15.8984375 C6.34765625,16.8359375 6.953125,17.7083333 7.5,18.515625 Z"></path>
        </g>
    </g>
</svg>