<?xml version="1.0" encoding="UTF-8"?>
<svg width="24px" height="24px" viewBox="0 0 24 24" version="1.1" xmlns="http://www.w3.org/2000/svg" xmlns:xlink="http://www.w3.org/1999/xlink">
    <g id="icon-link-big" stroke="none" stroke-width="1" fill="none" fill-rule="evenodd">
        <path d="M14.109375,18.515625 L10.40625,22.21875 C9.21875,23.40625 7.78125,24 6.09375,24 C4.40625,24 2.96875,23.40625 1.78125,22.21875 C0.59375,21.03125 0,19.59375 0,17.90625 C0,16.21875 0.59375,14.78125 1.78125,13.59375 L5.484375,9.890625 C5.546875,9.828125 5.609375,9.765625 5.671875,9.703125 C5.828125,9.546875 6.0234375,9.515625 6.2578125,9.609375 C6.4921875,9.703125 6.609375,9.875 6.609375,10.125 C6.609375,10.34375 6.625,10.5625 6.65625,10.78125 C6.6875,10.96875 6.640625,11.125 6.515625,11.25 C5.859375,11.90625 4.6875,13.09375 3,14.8125 C2.125,15.65625 1.6875,16.6875 1.6875,17.90625 C1.6875,19.125 2.1171875,20.1640625 2.9765625,21.0234375 C3.8359375,21.8828125 4.875,22.3125 6.09375,22.3125 C7.3125,22.3125 8.34375,21.875 9.1875,21 L12.9375,17.296875 C13.78125,16.421875 14.203125,15.3828125 14.203125,14.1796875 C14.203125,12.9765625 13.78125,11.9375 12.9375,11.0625 C12.5625,10.6875 12.125,10.390625 11.625,10.171875 C11.375,10.078125 11.265625,9.90625 11.296875,9.65625 C11.296875,9.40625 11.34375,9.15625 11.4375,8.90625 C11.46875,8.75 11.5625,8.640625 11.71875,8.578125 C11.875,8.515625 12.03125,8.515625 12.1875,8.578125 C12.90625,8.890625 13.546875,9.328125 14.109375,9.890625 C15.296875,11.078125 15.890625,12.515625 15.890625,14.203125 C15.890625,15.890625 15.296875,17.328125 14.109375,18.515625 Z M9.890625,14.109375 C8.703125,12.921875 8.109375,11.484375 8.109375,9.796875 C8.109375,8.109375 8.703125,6.671875 9.890625,5.484375 L13.59375,1.78125 C14.78125,0.59375 16.21875,0 17.90625,0 C19.59375,0 21.03125,0.59375 22.21875,1.78125 C23.40625,2.96875 24,4.40625 24,6.09375 C24,7.78125 23.40625,9.21875 22.21875,10.40625 L18.515625,14.109375 C18.453125,14.171875 18.390625,14.234375 18.328125,14.296875 C18.171875,14.453125 17.9765625,14.484375 17.7421875,14.390625 C17.5078125,14.296875 17.390625,14.125 17.390625,13.875 C17.390625,13.65625 17.375,13.4375 17.34375,13.21875 C17.3125,13.03125 17.359375,12.875 17.484375,12.75 C18.078125,12.15625 19.25,10.96875 21,9.1875 C21.875,8.34375 22.3125,7.3125 22.3125,6.09375 C22.3125,4.875 21.8828125,3.8359375 21.0234375,2.9765625 C20.1640625,2.1171875 19.125,1.6875 17.90625,1.6875 C16.6875,1.6875 15.65625,2.125 14.8125,3 L11.0625,6.703125 C10.21875,7.578125 9.796875,8.6171875 9.796875,9.8203125 C9.796875,11.0234375 10.21875,12.0625 11.0625,12.9375 C11.4375,13.3125 11.875,13.609375 12.375,13.828125 C12.625,13.921875 12.734375,14.09375 12.703125,14.34375 C12.703125,14.59375 12.65625,14.84375 12.5625,15.09375 C12.53125,15.25 12.4375,15.359375 12.28125,15.421875 C12.125,15.484375 11.96875,15.484375 11.8125,15.421875 C11.09375,15.109375 10.453125,14.671875 9.890625,14.109375 Z" id="Shape" fill="#212529" fill-rule="nonzero"></path>
    </g>
</svg>