<?xml version="1.0" encoding="UTF-8"?>
<svg width="16px" height="16px" viewBox="0 0 16 16" version="1.1" xmlns="http://www.w3.org/2000/svg" xmlns:xlink="http://www.w3.org/1999/xlink">
    <g id="icon-close" stroke="none" stroke-width="1" fill="none" fill-rule="evenodd">
        <g id="ï€" transform="translate(0.500000, 0.500000)" fill="#212529" fill-rule="nonzero">
            <path d="M9.08878505,7.5 L14.8831776,13.2943925 C15.0389408,13.4501558 15.0389408,13.6214953 14.8831776,13.8084112 L13.8084112,14.8831776 C13.6214953,15.0389408 13.4501558,15.0389408 13.2943925,14.8831776 L12.3130841,13.8551402 L7.5,9.08878505 L1.70560748,14.8831776 C1.54984424,15.0389408 1.37850467,15.0389408 1.19158879,14.8831776 L0.11682243,13.8084112 C-0.03894081,13.6214953 -0.03894081,13.4501558 0.11682243,13.2943925 L5.91121495,7.5 L0.11682243,1.70560748 C-0.03894081,1.54984424 -0.03894081,1.37850467 0.11682243,1.19158879 L1.19158879,0.11682243 C1.37850467,-0.03894081 1.54984424,-0.03894081 1.70560748,0.11682243 L7.5,5.91121495 L13.2943925,0.11682243 C13.4501558,-0.03894081 13.6214953,-0.03894081 13.8084112,0.11682243 L14.8831776,1.19158879 C15.0389408,1.37850467 15.0389408,1.54984424 14.8831776,1.70560748 L13.8551402,2.68691589 L9.08878505,7.5 Z" id="Path"></path>
        </g>
    </g>
</svg>