<?xml version="1.0" encoding="UTF-8"?>
<svg width="16px" height="16px" viewBox="0 0 16 16" version="1.1" xmlns="http://www.w3.org/2000/svg" xmlns:xlink="http://www.w3.org/1999/xlink">
    <g id="icon-all" stroke="none" stroke-width="1" fill="none" fill-rule="evenodd">
        <g transform="translate(0.808824, 0.000000)" fill="#212529" fill-rule="nonzero" id="ï©">
            <path d="M14.1599265,11.15625 C14.3890931,11.28125 14.4411765,11.4583333 14.3161765,11.6875 L13.9411765,12.3125 C13.8161765,12.5416667 13.6390931,12.59375 13.4099265,12.46875 L7.94117647,9.3125 L7.94117647,15.625 C7.94117647,15.875 7.81617647,16 7.56617647,16 L6.81617647,16 C6.56617647,16 6.44117647,15.875 6.44117647,15.625 L6.44117647,9.3125 L0.972426471,12.46875 C0.743259804,12.59375 0.566176471,12.5416667 0.441176471,12.3125 L0.0661764706,11.6875 C-0.0588235294,11.4583333 -0.00674019608,11.28125 0.222426471,11.15625 L5.69117647,8 L0.222426471,4.84375 C-0.00674019608,4.71875 -0.0588235294,4.54166667 0.0661764706,4.3125 L0.441176471,3.6875 C0.566176471,3.45833333 0.743259804,3.40625 0.972426471,3.53125 L6.44117647,6.6875 L6.44117647,0.375 C6.44117647,0.125 6.56617647,0 6.81617647,0 L7.56617647,0 C7.81617647,0 7.94117647,0.125 7.94117647,0.375 L7.94117647,6.6875 L13.4099265,3.53125 C13.6390931,3.40625 13.8161765,3.45833333 13.9411765,3.6875 L14.3161765,4.3125 C14.4411765,4.54166667 14.3890931,4.71875 14.1599265,4.84375 L8.69117647,8 L14.1599265,11.15625 Z"></path>
        </g>
    </g>
</svg>