<?xml version="1.0" encoding="UTF-8"?>
<svg width="17.9488407px" height="18px" viewBox="0 0 17.9488407 18" version="1.1" xmlns="http://www.w3.org/2000/svg" xmlns:xlink="http://www.w3.org/1999/xlink">
    <g id="icon-adults" stroke="none" stroke-width="1" fill="none" fill-rule="evenodd">
        <path d="M15.9800907,4.81640625 C15.4410282,5.35546875 14.7847782,5.625 14.0113407,5.625 C13.2379032,5.625 12.5757939,5.34960938 12.0250126,4.79882812 C11.4742314,4.24804688 11.1988407,3.5859375 11.1988407,2.8125 C11.1988407,2.0390625 11.4742314,1.37695312 12.0250126,0.826171875 C12.5757939,0.275390625 13.2379032,0 14.0113407,0 C14.7847782,0 15.4468876,0.275390625 15.9976689,0.826171875 C16.5484501,1.37695312 16.8238407,2.0390625 16.8238407,2.8125 C16.8238407,3.5859375 16.5425907,4.25390625 15.9800907,4.81640625 Z M15.2066532,1.6171875 C14.8785282,1.2890625 14.4800907,1.125 14.0113407,1.125 C13.5425907,1.125 13.1441532,1.2890625 12.8160282,1.6171875 C12.4879032,1.9453125 12.3238407,2.34375 12.3238407,2.8125 C12.3238407,3.28125 12.4879032,3.6796875 12.8160282,4.0078125 C13.1441532,4.3359375 13.5425907,4.5 14.0113407,4.5 C14.4800907,4.5 14.8785282,4.3359375 15.2066532,4.0078125 C15.5347782,3.6796875 15.6988407,3.28125 15.6988407,2.8125 C15.6988407,2.34375 15.5347782,1.9453125 15.2066532,1.6171875 Z M15.1363407,6.1875 C15.9097782,6.1875 16.5718876,6.46289062 17.1226689,7.01367188 C17.6734501,7.56445312 17.9488407,8.2265625 17.9488407,9 L17.9488407,12.5507812 C17.9488407,12.7382812 17.9078251,12.9023438 17.8257939,13.0429688 C17.7437626,13.1835938 17.6324345,13.2949219 17.4918095,13.3769531 C17.3511845,13.4589844 17.187122,13.5 16.999622,13.5 L16.5425907,13.5 L16.5425907,16.875 C16.5425907,17.1796875 16.4312626,17.4433594 16.2086064,17.6660156 C15.9859501,17.8886719 15.7222782,18 15.4175907,18 L12.6050907,18 C12.3004032,18 12.0367314,17.8886719 11.8140751,17.6660156 C11.5914189,17.4433594 11.4800907,17.1796875 11.4800907,16.875 L11.4800907,13.5 L11.0230595,13.5 C10.765247,13.5 10.5425907,13.40625 10.3550907,13.21875 C10.1675907,13.03125 10.0738407,12.8085938 10.0738407,12.5507812 L10.0738407,9 C10.0738407,8.2265625 10.3492314,7.56445312 10.9000126,7.01367188 C11.4507939,6.46289062 12.1129032,6.1875 12.8863407,6.1875 L15.1363407,6.1875 Z M16.8238407,12.375 L16.8238407,9 C16.8238407,8.53125 16.6597782,8.1328125 16.3316532,7.8046875 C16.0035282,7.4765625 15.6050907,7.3125 15.1363407,7.3125 L12.8863407,7.3125 C12.4175907,7.3125 12.0191532,7.4765625 11.6910282,7.8046875 C11.3629032,8.1328125 11.1988407,8.53125 11.1988407,9 L11.1988407,12.375 L12.6050907,12.375 L12.6050907,16.875 L15.4175907,16.875 L15.4175907,12.375 L16.8238407,12.375 Z M6.48009073,4.81640625 C5.94102823,5.35546875 5.28477823,5.625 4.51134073,5.625 C3.73790323,5.625 3.07579385,5.34960938 2.5250126,4.79882812 C1.97423135,4.24804688 1.69884073,3.5859375 1.69884073,2.8125 C1.69884073,2.0390625 1.97423135,1.37695312 2.5250126,0.826171875 C3.07579385,0.275390625 3.73790323,0 4.51134073,0 C5.28477823,0 5.9468876,0.275390625 6.49766885,0.826171875 C7.0484501,1.37695312 7.32384073,2.0390625 7.32384073,2.8125 C7.32384073,3.5859375 7.04259073,4.25390625 6.48009073,4.81640625 Z M5.70665323,1.6171875 C5.37852823,1.2890625 4.98009073,1.125 4.51134073,1.125 C4.04259073,1.125 3.64415323,1.2890625 3.31602823,1.6171875 C2.98790323,1.9453125 2.82384073,2.34375 2.82384073,2.8125 C2.82384073,3.28125 2.98790323,3.6796875 3.31602823,4.0078125 C3.64415323,4.3359375 4.04259073,4.5 4.51134073,4.5 C4.98009073,4.5 5.37852823,4.3359375 5.70665323,4.0078125 C6.03477823,3.6796875 6.19884073,3.28125 6.19884073,2.8125 C6.19884073,2.34375 6.03477823,1.9453125 5.70665323,1.6171875 Z M8.94102823,12.6210938 C9.08165323,12.9726562 9.0406376,13.3007812 8.81798135,13.6054688 C8.5953251,13.9101562 8.29649698,14.0625 7.92149698,14.0625 L7.04259073,14.0625 L7.04259073,16.875 C7.04259073,17.1796875 6.9312626,17.4433594 6.70860635,17.6660156 C6.4859501,17.8886719 6.22227823,18 5.91759073,18 L3.10509073,18 C2.80040323,18 2.53673135,17.8886719 2.3140751,17.6660156 C2.09141885,17.4433594 1.98009073,17.1796875 1.98009073,16.875 L1.98009073,14.0625 L1.10118448,14.0625 C0.726184476,14.0625 0.427356351,13.9101562 0.204700101,13.6054688 C-0.0179561492,13.3007812 -0.0589717742,12.9726562 0.0816532258,12.6210938 L1.66368448,8.3671875 C1.75743448,8.0390625 1.8922001,7.74023438 2.06798135,7.47070312 C2.2437626,7.20117188 2.46055948,6.97265625 2.71837198,6.78515625 C2.97618448,6.59765625 3.25743448,6.45117188 3.56212198,6.34570312 C3.86680948,6.24023438 4.18321573,6.1875 4.51134073,6.1875 C5.16759073,6.1875 5.76524698,6.38671875 6.30430948,6.78515625 C6.84337198,7.18359375 7.19493448,7.7109375 7.35899698,8.3671875 L8.94102823,12.6210938 Z M5.91759073,12.9375 L7.88634073,12.9375 L6.30430948,8.71875 C6.23399698,8.4375 6.10509073,8.19140625 5.91759073,7.98046875 C5.73009073,7.76953125 5.51915323,7.60546875 5.28477823,7.48828125 C5.05040323,7.37109375 4.79259073,7.3125 4.51134073,7.3125 C4.08946573,7.3125 3.71446573,7.44140625 3.38634073,7.69921875 C3.05821573,7.95703125 2.83555948,8.296875 2.71837198,8.71875 L1.13634073,12.9375 L3.10509073,12.9375 L3.10509073,16.875 L5.91759073,16.875 L5.91759073,12.9375 Z" id="" fill="#212529" fill-rule="nonzero"></path>
    </g>
</svg>