<?xml version="1.0" encoding="UTF-8"?>
<svg width="20px" height="14px" viewBox="0 0 20 14" version="1.1" xmlns="http://www.w3.org/2000/svg" xmlns:xlink="http://www.w3.org/1999/xlink">
    <title>icon-gp-floating--blue</title>
    <g id="dr-page" stroke="none" stroke-width="1" fill="none" fill-rule="evenodd">
        <g id="Large-Copy" transform="translate(-953.000000, -525.000000)" fill="#008CD0" fill-rule="nonzero">
            <g id="icon-gp-floating--blue" transform="translate(953.000000, 525.000000)">
                <path d="M13.15625,7.1875 C13.9479167,6.39583333 14.8958333,6 16,6 C17.1041667,6 18.046875,6.390625 18.828125,7.171875 C19.609375,7.953125 20,8.89583333 20,10 C20,11.1041667 19.609375,12.046875 18.828125,12.828125 C18.046875,13.609375 17.1041667,14 16,14 C14.8958333,14 13.953125,13.609375 13.171875,12.828125 C12.390625,12.046875 12,11.1041667 12,10 C12,8.89583333 12.3854167,7.95833333 13.15625,7.1875 Z M13.875,12.125 C14.4583333,12.7083333 15.1666667,13 16,13 C16.8333333,13 17.5416667,12.7083333 18.125,12.125 C18.7083333,11.5416667 19,10.8333333 19,10 C19,9.16666667 18.7083333,8.45833333 18.125,7.875 C17.5416667,7.29166667 16.8333333,7 16,7 C15.1666667,7 14.4583333,7.29166667 13.875,7.875 C13.2916667,8.45833333 13,9.16666667 13,10 C13,10.8333333 13.2916667,11.5416667 13.875,12.125 Z M17.84375,9.34375 C17.9479167,9.34375 18,9.39583333 18,9.5 L18,10.5 C18,10.6041667 17.9479167,10.65625 17.84375,10.65625 L16.65625,10.65625 L16.65625,11.84375 C16.65625,11.9479167 16.6041667,12 16.5,12 L15.5,12 C15.3958333,12 15.34375,11.9479167 15.34375,11.84375 L15.34375,10.65625 L14.15625,10.65625 C14.0520833,10.65625 14,10.6041667 14,10.5 L14,9.5 C14,9.39583333 14.0520833,9.34375 14.15625,9.34375 L15.34375,9.34375 L15.34375,8.15625 C15.34375,8.05208333 15.3958333,8 15.5,8 L16.5,8 C16.6041667,8 16.65625,8.05208333 16.65625,8.15625 L16.65625,9.34375 L17.84375,9.34375 Z M10,7 C9.04166667,7 8.21875,6.65625 7.53125,5.96875 C6.84375,5.28125 6.5,4.45833333 6.5,3.5 C6.5,2.54166667 6.84375,1.71875 7.53125,1.03125 C8.21875,0.34375 9.04166667,0 10,0 C10.9583333,0 11.78125,0.34375 12.46875,1.03125 C13.15625,1.71875 13.5,2.54166667 13.5,3.5 C13.5,4.45833333 13.15625,5.28125 12.46875,5.96875 C11.78125,6.65625 10.9583333,7 10,7 Z M11.75,1.75 C11.2708333,1.25 10.6875,1 10,1 C9.3125,1 8.72395833,1.24479167 8.234375,1.734375 C7.74479167,2.22395833 7.5,2.8125 7.5,3.5 C7.5,4.1875 7.74479167,4.77604167 8.234375,5.265625 C8.72395833,5.75520833 9.3125,6 10,6 C10.6875,6 11.2760417,5.75520833 11.765625,5.265625 C12.2552083,4.77604167 12.5,4.1875 12.5,3.5 C12.5,2.8125 12.25,2.22916667 11.75,1.75 Z M4.75,5.28125 C4.27083333,5.76041667 3.6875,6 3,6 C2.3125,6 1.72395833,5.75520833 1.234375,5.265625 C0.744791667,4.77604167 0.5,4.1875 0.5,3.5 C0.5,2.8125 0.744791667,2.22395833 1.234375,1.734375 C1.72395833,1.24479167 2.3125,1 3,1 C3.6875,1 4.27604167,1.24479167 4.765625,1.734375 C5.25520833,2.22395833 5.5,2.8125 5.5,3.5 C5.5,4.1875 5.25,4.78125 4.75,5.28125 Z M4.0625,2.4375 C3.77083333,2.14583333 3.41666667,2 3,2 C2.58333333,2 2.22916667,2.14583333 1.9375,2.4375 C1.64583333,2.72916667 1.5,3.08333333 1.5,3.5 C1.5,3.91666667 1.64583333,4.27083333 1.9375,4.5625 C2.22916667,4.85416667 2.58333333,5 3,5 C3.41666667,5 3.77083333,4.85416667 4.0625,4.5625 C4.35416667,4.27083333 4.5,3.91666667 4.5,3.5 C4.5,3.08333333 4.35416667,2.72916667 4.0625,2.4375 Z M12.03125,13 C12.3229167,13.375 12.65625,13.7083333 13.03125,14 L5.5,14 C5.08333333,14 4.72916667,13.8541667 4.4375,13.5625 C4.14583333,13.2708333 4,12.9166667 4,12.5 L4,11.09375 C4,10.3645833 4.20833333,9.69791667 4.625,9.09375 C5.27083333,8.11458333 6.22916667,7.625 7.5,7.625 C7.83333333,7.625 8.22916667,7.6875 8.6875,7.8125 C9.14583333,7.9375 9.58333333,8 10,8 C10.375,8 10.8958333,7.91666667 11.5625,7.75 C11.375,8.10416667 11.2291667,8.47916667 11.125,8.875 C10.7708333,8.95833333 10.4166667,9 10.0625,9 C10.0416667,9 10.0208333,9 10,9 C9.52083333,9 9.04166667,8.9375 8.5625,8.8125 C8.08333333,8.6875 7.72916667,8.625 7.5,8.625 C6.58333333,8.625 5.89583333,8.96875 5.4375,9.65625 C5.14583333,10.09375 5,10.5729167 5,11.09375 L5,12.5 C5,12.6458333 5.046875,12.765625 5.140625,12.859375 C5.234375,12.953125 5.35416667,13 5.5,13 L12.03125,13 Z M4.90625,7.40625 C4.61458333,7.61458333 4.35416667,7.84375 4.125,8.09375 C3.95833333,8.03125 3.79166667,8 3.625,8 L2.375,8 C2,8 1.67708333,8.14583333 1.40625,8.4375 C1.13541667,8.72916667 1,9.08333333 1,9.5 C1,9.64583333 0.953125,9.765625 0.859375,9.859375 C0.765625,9.953125 0.645833333,10 0.5,10 C0.354166667,10 0.234375,9.953125 0.140625,9.859375 C0.046875,9.765625 0,9.64583333 0,9.5 C0,8.8125 0.234375,8.22395833 0.703125,7.734375 C1.171875,7.24479167 1.72916667,7 2.375,7 L3.625,7 C4.10416667,7 4.53125,7.13541667 4.90625,7.40625 Z" id="Shape"></path>
            </g>
        </g>
    </g>
</svg>