<?xml version="1.0" encoding="UTF-8"?>
<svg width="18px" height="15px" viewBox="0 0 18 15" version="1.1" xmlns="http://www.w3.org/2000/svg" xmlns:xlink="http://www.w3.org/1999/xlink">
    <g id="dr-page" stroke="none" stroke-width="1" fill="none" fill-rule="evenodd">
        <g id="Large" transform="translate(-461.000000, -539.000000)" fill="#5C11D2" fill-rule="nonzero">
            <g id="icon-clinic--violet" transform="translate(461.000000, 539.750000)">
                <path d="M4.046875,5.25 C4.265625,5.25 4.375,5.359375 4.375,5.578125 L4.375,6.671875 C4.375,6.890625 4.265625,7 4.046875,7 L2.953125,7 C2.734375,7 2.625,6.890625 2.625,6.671875 L2.625,5.578125 C2.625,5.359375 2.734375,5.25 2.953125,5.25 L4.046875,5.25 Z M4.046875,7.875 C4.265625,7.875 4.375,7.984375 4.375,8.203125 L4.375,9.296875 C4.375,9.515625 4.265625,9.625 4.046875,9.625 L2.953125,9.625 C2.734375,9.625 2.625,9.515625 2.625,9.296875 L2.625,8.203125 C2.625,7.984375 2.734375,7.875 2.953125,7.875 L4.046875,7.875 Z M4.046875,10.5 C4.265625,10.5 4.375,10.609375 4.375,10.828125 L4.375,11.921875 C4.375,12.140625 4.265625,12.25 4.046875,12.25 L2.953125,12.25 C2.734375,12.25 2.625,12.140625 2.625,11.921875 L2.625,10.828125 C2.625,10.609375 2.734375,10.5 2.953125,10.5 L4.046875,10.5 Z M6.671875,7.875 C6.890625,7.875 7,7.984375 7,8.203125 L7,9.296875 C7,9.515625 6.890625,9.625 6.671875,9.625 L5.578125,9.625 C5.359375,9.625 5.25,9.515625 5.25,9.296875 L5.25,8.203125 C5.25,7.984375 5.359375,7.875 5.578125,7.875 L6.671875,7.875 Z M6.671875,5.25 C6.890625,5.25 7,5.359375 7,5.578125 L7,6.671875 C7,6.890625 6.890625,7 6.671875,7 L5.578125,7 C5.359375,7 5.25,6.890625 5.25,6.671875 L5.25,5.578125 C5.25,5.359375 5.359375,5.25 5.578125,5.25 L6.671875,5.25 Z M6.671875,10.5 C6.890625,10.5 7,10.609375 7,10.828125 L7,11.921875 C7,12.140625 6.890625,12.25 6.671875,12.25 L5.578125,12.25 C5.359375,12.25 5.25,12.140625 5.25,11.921875 L5.25,10.828125 C5.25,10.609375 5.359375,10.5 5.578125,10.5 L6.671875,10.5 Z M5.25,3.5 L5.25,4.2109375 C5.25,4.3203125 5.1953125,4.375 5.0859375,4.375 L4.5390625,4.375 C4.4296875,4.375 4.375,4.3203125 4.375,4.2109375 L4.375,3.5 L3.6640625,3.5 C3.5546875,3.5 3.5,3.4453125 3.5,3.3359375 L3.5,2.7890625 C3.5,2.6796875 3.5546875,2.625 3.6640625,2.625 L4.375,2.625 L4.375,1.9140625 C4.375,1.8046875 4.4296875,1.75 4.5390625,1.75 L5.0859375,1.75 C5.1953125,1.75 5.25,1.8046875 5.25,1.9140625 L5.25,2.625 L5.9609375,2.625 C6.0703125,2.625 6.125,2.6796875 6.125,2.7890625 L6.125,3.3359375 C6.125,3.4453125 6.0703125,3.5 5.9609375,3.5 L5.25,3.5 Z M14.984375,7.984375 C14.4739583,8.49479167 13.8541667,8.75 13.125,8.75 C12.3958333,8.75 11.7760417,8.49479167 11.265625,7.984375 C10.7552083,7.47395833 10.5,6.85416667 10.5,6.125 C10.5,5.39583333 10.7552083,4.77604167 11.265625,4.265625 C11.7760417,3.75520833 12.3958333,3.5 13.125,3.5 C13.8541667,3.5 14.4739583,3.75520833 14.984375,4.265625 C15.4947917,4.77604167 15.75,5.39583333 15.75,6.125 C15.75,6.85416667 15.4947917,7.47395833 14.984375,7.984375 Z M14.3554688,4.89453125 C14.0091146,4.54817708 13.5989583,4.375 13.125,4.375 C12.6510417,4.375 12.2408854,4.54817708 11.8945312,4.89453125 C11.5481771,5.24088542 11.375,5.65104167 11.375,6.125 C11.375,6.59895833 11.5481771,7.00911458 11.8945312,7.35546875 C12.2408854,7.70182292 12.6510417,7.875 13.125,7.875 C13.5989583,7.875 14.0091146,7.70182292 14.3554688,7.35546875 C14.7018229,7.00911458 14.875,6.59895833 14.875,6.125 C14.875,5.65104167 14.7018229,5.24088542 14.3554688,4.89453125 Z M17.0625,10.4179688 C17.3541667,10.8554688 17.5,11.3476562 17.5,11.8945312 L17.5,12.90625 C17.5,13.2161458 17.3951823,13.4759115 17.1855469,13.6855469 C16.9759115,13.8951823 16.7161458,14 16.40625,14 L9.84375,14 C9.53385417,14 9.27408854,13.8951823 9.06445312,13.6855469 C8.85481771,13.4759115 8.75,13.2161458 8.75,12.90625 L8.75,11.8945312 L8.75,11.8671875 C8.75,11.3385417 8.89583333,10.8554688 9.1875,10.4179688 C9.6796875,9.70703125 10.3815104,9.3515625 11.2929688,9.3515625 C11.5481771,9.3515625 11.8398438,9.39713542 12.1679688,9.48828125 C12.4960938,9.57942708 12.8151042,9.625 13.125,9.625 C13.4348958,9.625 13.7539062,9.57942708 14.0820312,9.48828125 C14.4101562,9.39713542 14.7018229,9.3515625 14.9570312,9.3515625 C15.8684896,9.3515625 16.5703125,9.70703125 17.0625,10.4179688 Z M16.625,12.90625 L16.625,11.8945312 C16.625,11.5299479 16.5247396,11.2018229 16.3242188,10.9101562 C16.0143229,10.4544271 15.5585938,10.2265625 14.9570312,10.2265625 C14.7929688,10.2265625 14.5377604,10.2721354 14.1914062,10.3632812 C13.8450521,10.4544271 13.4895833,10.5 13.125,10.5 C12.7604167,10.5 12.4049479,10.4544271 12.0585938,10.3632812 C11.7122396,10.2721354 11.4570312,10.2265625 11.2929688,10.2265625 C10.6914062,10.2265625 10.2356771,10.4544271 9.92578125,10.9101562 C9.72526042,11.2018229 9.625,11.5299479 9.625,11.8945312 L9.625,12.90625 C9.625,13.0520833 9.69791667,13.125 9.84375,13.125 L16.40625,13.125 C16.5520833,13.125 16.625,13.0520833 16.625,12.90625 Z M8.75,3.5 L7.4375,3.5 L7.4375,0.875 L2.1875,0.875 L2.1875,3.5 L0.875,3.5 L0.875,13.78125 C0.875,13.9270833 0.802083333,14 0.65625,14 L0.21875,14 C0.0729166667,14 0,13.9270833 0,13.78125 L0,3.5 C0,3.26302083 0.0865885417,3.05794271 0.259765625,2.88476562 C0.432942708,2.71158854 0.638020833,2.625 0.875,2.625 L1.3125,2.625 L1.3125,0.875 C1.3125,0.638020833 1.39908854,0.432942708 1.57226562,0.259765625 C1.74544271,0.0865885417 1.95052083,0 2.1875,0 L7.4375,0 C7.67447917,0 7.87955729,0.0865885417 8.05273438,0.259765625 C8.22591146,0.432942708 8.3125,0.638020833 8.3125,0.875 L8.3125,2.625 L8.75,2.625 C8.98697917,2.625 9.19205729,2.71158854 9.36523438,2.88476562 C9.53841146,3.05794271 9.625,3.26302083 9.625,3.5 L9.625,8.88671875 C9.296875,9.06901042 9.00520833,9.296875 8.75,9.5703125 L8.75,3.5 Z" id="Shape"></path>
            </g>
        </g>
    </g>
</svg>