<?xml version="1.0" encoding="UTF-8"?>
<svg width="14px" height="16px" viewBox="0 0 14 16" version="1.1" xmlns="http://www.w3.org/2000/svg" xmlns:xlink="http://www.w3.org/1999/xlink">
    <g id="icon-dentist" stroke="none" stroke-width="1" fill="none" fill-rule="evenodd">
        <g transform="translate(0.021034, -0.008523)" fill="#212529" fill-rule="nonzero" id="">
            <path d="M13.8852163,3.00852273 C14.1977163,4.30018939 13.9685497,5.45643939 13.1977163,6.47727273 C12.5727163,7.31060606 12.1977163,8.42518939 12.0727163,9.82102273 C11.9060497,11.5501894 11.6872997,13.0085227 11.4164663,14.1960227 L11.1664663,15.2585227 C11.1247997,15.4876894 11.0154247,15.6699811 10.8383413,15.8053977 C10.661258,15.9408144 10.4685497,16.0085227 10.2602163,16.0085227 C10.0310497,16.0085227 9.83313301,15.9408144 9.66646635,15.8053977 C9.49979968,15.6699811 9.38521635,15.4981061 9.32271635,15.2897727 L8.26021635,10.9460227 C8.17688301,10.6751894 8.02063301,10.4460227 7.79146635,10.2585227 C7.56229968,10.0710227 7.30188301,9.97727273 7.01021635,9.97727273 C6.71854968,9.97727273 6.45813301,10.0710227 6.22896635,10.2585227 C5.99979968,10.4460227 5.84354968,10.6751894 5.76021635,10.9460227 L4.69771635,15.2897727 C4.63521635,15.4981061 4.52063301,15.6699811 4.35396635,15.8053977 C4.18729968,15.9408144 3.98938301,16.0085227 3.76021635,16.0085227 C3.55188301,16.0085227 3.35917468,15.9408144 3.18209135,15.8053977 C3.00500801,15.6699811 2.89563301,15.4876894 2.85396635,15.2585227 L2.60396635,14.1960227 C2.33313301,13.0085227 2.11438301,11.5501894 1.94771635,9.82102273 C1.82271635,8.42518939 1.44771635,7.31060606 0.822716346,6.47727273 C0.0518830128,5.43560606 -0.177283654,4.27935606 0.135216346,3.00852273 C0.301883013,2.30018939 0.645633013,1.68039773 1.16646635,1.14914773 C1.68729968,0.617897727 2.30188301,0.258522727 3.01021635,0.0710227273 C3.84354968,-0.137310606 4.74979968,0.112689394 5.72896635,0.821022727 L5.76021635,0.821022727 C6.21854968,1.11268939 6.63521635,1.25852273 7.01021635,1.25852273 C7.44771635,1.25852273 7.85396635,1.12310606 8.22896635,0.852272727 C9.22896635,0.123106061 10.1560497,-0.137310606 11.0102163,0.0710227273 C11.7185497,0.258522727 12.333133,0.617897727 12.8539663,1.14914773 C13.3747997,1.68039773 13.7185497,2.30018939 13.8852163,3.00852273 Z M12.0102163,5.57102273 C12.489383,4.92518939 12.6247997,4.19602273 12.4164663,3.38352273 C12.3747997,3.15435606 12.2966747,2.94081439 12.1820913,2.74289773 C12.067508,2.54498106 11.9320913,2.36789773 11.7758413,2.21164773 C11.6195913,2.05539773 11.442508,1.91998106 11.2445913,1.80539773 C11.0466747,1.69081439 10.8435497,1.60227273 10.6352163,1.53977273 C10.239383,1.43560606 9.72896635,1.61268939 9.10396635,2.07102273 C8.91646635,2.21685606 8.67688301,2.34185606 8.38521635,2.44602273 L8.66646635,2.63352273 C8.83313301,2.73768939 8.94250801,2.88873106 8.99459135,3.08664773 C9.04667468,3.28456439 9.01021635,3.47727273 8.88521635,3.66477273 C8.73938301,3.89393939 8.53104968,4.00852273 8.26021635,4.00852273 C8.11438301,4.00852273 7.97896635,3.96685606 7.85396635,3.88352273 C7.43729968,3.63352273 6.90604968,3.30018939 6.26021635,2.88352273 C5.17688301,2.21685606 4.52063301,1.82102273 4.29146635,1.69602273 C4.06229968,1.57102273 3.84354968,1.50852273 3.63521635,1.50852273 C3.55188301,1.50852273 3.46854968,1.51893939 3.38521635,1.53977273 C2.94771635,1.64393939 2.56750801,1.86268939 2.24459135,2.19602273 C1.92167468,2.52935606 1.70813301,2.92518939 1.60396635,3.38352273 C1.39563301,4.19602273 1.53104968,4.92518939 2.01021635,5.57102273 C2.80188301,6.63352273 3.28104968,8.00852273 3.44771635,9.69602273 C3.55188301,10.8210227 3.67688301,11.8001894 3.82271635,12.6335227 L4.32271635,10.6022727 C4.42688301,10.1856061 4.60917468,9.81581439 4.86959135,9.49289773 C5.13000801,9.16998106 5.44771635,8.91998106 5.82271635,8.74289773 C6.19771635,8.56581439 6.59354968,8.47727273 7.01021635,8.47727273 C7.42688301,8.47727273 7.82271635,8.56581439 8.19771635,8.74289773 C8.57271635,8.91998106 8.89042468,9.16998106 9.15084135,9.49289773 C9.41125801,9.81581439 9.59354968,10.1856061 9.69771635,10.6022727 L10.1977163,12.6335227 C10.3435497,11.8001894 10.4685497,10.8210227 10.5727163,9.69602273 C10.739383,8.00852273 11.2185497,6.63352273 12.0102163,5.57102273 Z"></path>
        </g>
    </g>
</svg>