<?xml version="1.0" encoding="UTF-8"?>
<svg width="17px" height="17px" viewBox="0 0 17 17" version="1.1" xmlns="http://www.w3.org/2000/svg" xmlns:xlink="http://www.w3.org/1999/xlink">
    <g id="home-page" stroke="none" stroke-width="1" fill="none" fill-rule="evenodd">
        <g id="Desktop-HD" transform="translate(-109.000000, -594.000000)" fill="#212529" fill-rule="nonzero">
            <g id="icon-phone" transform="translate(109.019022, 594.987772)">
                <path d="M14.8872283,0.730978261 C15.2205616,0.793478261 15.4913949,0.954936594 15.6997283,1.21535326 C15.9080616,1.47576993 16.0122283,1.78306159 16.0122283,2.13722826 C16.0122283,4.01222826 15.6424366,5.80910326 14.9028533,7.52785326 C14.1632699,9.24660326 13.1736866,10.7257699 11.9341033,11.9653533 C10.6945199,13.2049366 9.22056159,14.1893116 7.51222826,14.9184783 C5.80389493,15.6476449 4.00181159,16.0122283 2.10597826,16.0122283 C1.77264493,16.0122283 1.47576993,15.9080616 1.21535326,15.6997283 C0.954936594,15.4913949 0.793478261,15.2205616 0.730978261,14.8872283 L0.0434782609,11.9497283 C-0.0398550725,11.6163949 -0.00339673913,11.2934783 0.152853261,10.9809783 C0.309103261,10.6684783 0.553894928,10.4497283 0.887228261,10.3247283 L4.04347826,8.94972826 C4.33514493,8.82472826 4.63722826,8.80389493 4.94972826,8.88722826 C5.26222826,8.97056159 5.52264493,9.13722826 5.73097826,9.38722826 L6.73097826,10.6372283 C8.41847826,9.72056159 9.72056159,8.41847826 10.6372283,6.73097826 L9.38722826,5.73097826 C9.13722826,5.52264493 8.97576993,5.26222826 8.90285326,4.94972826 C8.82993659,4.63722826 8.84556159,4.33514493 8.94972826,4.04347826 L10.3247283,0.887228261 C10.4705616,0.553894928 10.6945199,0.309103261 10.9966033,0.152853261 C11.2986866,-0.00339673913 11.6163949,-0.0398550725 11.9497283,0.0434782609 L14.8872283,0.730978261 Z M2.16847826,14.5122283 C4.39764493,14.5122283 6.46014493,13.9601449 8.35597826,12.8559783 C10.2518116,11.7518116 11.7518116,10.2518116 12.8559783,8.35597826 C13.9601449,6.46014493 14.5122283,4.39764493 14.5122283,2.16847826 L11.6684783,1.51222826 L10.3559783,4.60597826 L12.4809783,6.32472826 C11.7726449,7.86639493 10.9549366,9.09556159 10.0278533,10.0122283 C9.10076993,10.9288949 7.86639493,11.7518116 6.32472826,12.4809783 L4.60597826,10.3559783 L1.51222826,11.6684783 L2.16847826,14.5122283 Z" id="Shape"></path>
            </g>
        </g>
    </g>
</svg>