<?xml version="1.0" encoding="UTF-8"?>
<svg width="142px" height="40px" viewBox="0 0 142 40" version="1.1" xmlns="http://www.w3.org/2000/svg" xmlns:xlink="http://www.w3.org/1999/xlink">
    <title>zdavniki-sledilnik-logo</title>
    <g id="zdavniki-sledilnik-logo" stroke="none" stroke-width="1" fill="none" fill-rule="evenodd">
        <g id="ZDRAVNIKI-SLEDILNIK" transform="translate(32.304000, 9.040000)" fill="#212529" fill-rule="nonzero">
            <polygon id="Z" points="11.056 13.96 0.476 13.96 0.476 11.26 7.376 2.68 0.816 2.68 0.816 0 10.896 0 10.896 2.7 3.976 11.28 11.056 11.28"></polygon>
            <path d="M13.176,0 L18.436,0 C19.356,0 20.196,0.146666667 20.956,0.44 C21.716,0.733333333 22.3626667,1.17 22.896,1.75 C23.4293333,2.33 23.8426667,3.05666667 24.136,3.93 C24.4293333,4.80333333 24.576,5.82 24.576,6.98 C24.576,8.14 24.4293333,9.15666667 24.136,10.03 C23.8426667,10.9033333 23.4293333,11.63 22.896,12.21 C22.3626667,12.79 21.716,13.2266667 20.956,13.52 C20.196,13.8133333 19.356,13.96 18.436,13.96 L13.176,13.96 L13.176,0 Z M18.436,11.26 C19.3426667,11.26 20.056,11.0066667 20.576,10.5 C21.096,9.99333333 21.356,9.18 21.356,8.06 L21.356,5.9 C21.356,4.78 21.096,3.96666667 20.576,3.46 C20.056,2.95333333 19.3426667,2.7 18.436,2.7 L16.216,2.7 L16.216,11.26 L18.436,11.26 Z" id="D"></path>
            <path d="M29.956,13.96 L26.916,13.96 L26.916,0 L33.536,0 C34.176,0 34.756,0.106666667 35.276,0.32 C35.796,0.533333333 36.2393333,0.836666667 36.606,1.23 C36.9726667,1.62333333 37.256,2.09333333 37.456,2.64 C37.656,3.18666667 37.756,3.79333333 37.756,4.46 C37.756,5.40666667 37.546,6.23333333 37.126,6.94 C36.706,7.64666667 36.0693333,8.16 35.216,8.48 L37.956,13.96 L34.576,13.96 L32.136,8.84 L29.956,8.84 L29.956,13.96 Z M33.156,6.28 C33.6093333,6.28 33.966,6.16333333 34.226,5.93 C34.486,5.69666667 34.616,5.35333333 34.616,4.9 L34.616,4.02 C34.616,3.56666667 34.486,3.22333333 34.226,2.99 C33.966,2.75666667 33.6093333,2.64 33.156,2.64 L29.956,2.64 L29.956,6.28 L33.156,6.28 Z" id="R"></path>
            <path d="M48.796,13.96 L47.796,10.64 L43.136,10.64 L42.136,13.96 L39.056,13.96 L43.656,0 L47.416,0 L51.956,13.96 L48.796,13.96 Z M45.496,2.76 L45.396,2.76 L43.856,8.06 L47.056,8.06 L45.496,2.76 Z" id="A"></path>
            <polygon id="V" points="55.856 13.96 51.356 0 54.436 0 56.516 6.7 57.616 11.08 57.676 11.08 58.736 6.7 60.816 0 63.796 0 59.256 13.96"></polygon>
            <polygon id="N" points="69.676 7.36 68.336 4.56 68.276 4.56 68.276 13.96 65.416 13.96 65.416 0 68.736 0 72.556 6.6 73.896 9.4 73.956 9.4 73.956 0 76.816 0 76.816 13.96 73.496 13.96"></polygon>
            <polygon id="I" points="79.156 13.96 79.156 11.54 80.956 11.54 80.956 2.42 79.156 2.42 79.156 0 85.796 0 85.796 2.42 83.996 2.42 83.996 11.54 85.796 11.54 85.796 13.96"></polygon>
            <polygon id="K" points="92.996 7.88 91.176 10.08 91.176 13.96 88.136 13.96 88.136 0 91.176 0 91.176 6.64 91.296 6.64 93.276 3.94 96.416 0 99.856 0 95.156 5.74 100.276 13.96 96.696 13.96"></polygon>
            <polygon id="I" points="101.316 13.96 101.316 11.54 103.116 11.54 103.116 2.42 101.316 2.42 101.316 0 107.956 0 107.956 2.42 106.156 2.42 106.156 11.54 107.956 11.54 107.956 13.96"></polygon>
            <path d="M2.12,25.056 C1.62933333,25.056 1.21333333,24.972 0.872,24.804 C0.530666667,24.636 0.24,24.4186667 0,24.152 L0.8,23.344 C1.17866667,23.7706667 1.64533333,23.984 2.2,23.984 C2.49866667,23.984 2.72,23.9226667 2.864,23.8 C3.008,23.6773333 3.08,23.5146667 3.08,23.312 C3.08,23.1573333 3.03733333,23.028 2.952,22.924 C2.86666667,22.82 2.69333333,22.7493333 2.432,22.712 L1.88,22.64 C1.288,22.5653333 0.854666667,22.3866667 0.58,22.104 C0.305333333,21.8213333 0.168,21.4453333 0.168,20.976 C0.168,20.7253333 0.216,20.496 0.312,20.288 C0.408,20.08 0.545333333,19.9013333 0.724,19.752 C0.902666667,19.6026667 1.12133333,19.4866667 1.38,19.404 C1.63866667,19.3213333 1.93333333,19.28 2.264,19.28 C2.68533333,19.28 3.056,19.3466667 3.376,19.48 C3.696,19.6133333 3.97066667,19.808 4.2,20.064 L3.392,20.88 C3.25866667,20.7253333 3.09733333,20.5986667 2.908,20.5 C2.71866667,20.4013333 2.48,20.352 2.192,20.352 C1.92,20.352 1.71733333,20.4 1.584,20.496 C1.45066667,20.592 1.384,20.7253333 1.384,20.896 C1.384,21.088 1.436,21.2266667 1.54,21.312 C1.644,21.3973333 1.81333333,21.4586667 2.048,21.496 L2.6,21.584 C3.176,21.6746667 3.60266667,21.852 3.88,22.116 C4.15733333,22.38 4.296,22.7546667 4.296,23.24 C4.296,23.5066667 4.248,23.752 4.152,23.976 C4.056,24.2 3.916,24.392 3.732,24.552 C3.548,24.712 3.32,24.836 3.048,24.924 C2.776,25.012 2.46666667,25.056 2.12,25.056 Z" id="S"></path>
            <polygon id="L" points="7.704 24.96 7.704 19.376 8.92 19.376 8.92 23.88 11.048 23.88 11.048 24.96"></polygon>
            <polygon id="E" points="14.344 24.96 14.344 19.376 18.144 19.376 18.144 20.456 15.56 20.456 15.56 21.6 17.776 21.6 17.776 22.672 15.56 22.672 15.56 23.88 18.144 23.88 18.144 24.96"></polygon>
            <path d="M21.6,19.376 L23.704,19.376 C24.072,19.376 24.408,19.4346667 24.712,19.552 C25.016,19.6693333 25.2746667,19.844 25.488,20.076 C25.7013333,20.308 25.8666667,20.5986667 25.984,20.948 C26.1013333,21.2973333 26.16,21.704 26.16,22.168 C26.16,22.632 26.1013333,23.0386667 25.984,23.388 C25.8666667,23.7373333 25.7013333,24.028 25.488,24.26 C25.2746667,24.492 25.016,24.6666667 24.712,24.784 C24.408,24.9013333 24.072,24.96 23.704,24.96 L21.6,24.96 L21.6,19.376 Z M23.704,23.88 C24.0666667,23.88 24.352,23.7786667 24.56,23.576 C24.768,23.3733333 24.872,23.048 24.872,22.6 L24.872,21.736 C24.872,21.288 24.768,20.9626667 24.56,20.76 C24.352,20.5573333 24.0666667,20.456 23.704,20.456 L22.816,20.456 L22.816,23.88 L23.704,23.88 Z" id="D"></path>
            <polygon id="I" points="29.36 24.96 29.36 23.992 30.08 23.992 30.08 20.344 29.36 20.344 29.36 19.376 32.016 19.376 32.016 20.344 31.296 20.344 31.296 23.992 32.016 23.992 32.016 24.96"></polygon>
            <polygon id="L" points="35.432 24.96 35.432 19.376 36.648 19.376 36.648 23.88 38.776 23.88 38.776 24.96"></polygon>
            <polygon id="N" points="43.776 22.32 43.24 21.2 43.216 21.2 43.216 24.96 42.072 24.96 42.072 19.376 43.4 19.376 44.928 22.016 45.464 23.136 45.488 23.136 45.488 19.376 46.632 19.376 46.632 24.96 45.304 24.96"></polygon>
            <polygon id="I" points="50.048 24.96 50.048 23.992 50.768 23.992 50.768 20.344 50.048 20.344 50.048 19.376 52.704 19.376 52.704 20.344 51.984 20.344 51.984 23.992 52.704 23.992 52.704 24.96"></polygon>
            <polygon id="K" points="58.064 22.528 57.336 23.408 57.336 24.96 56.12 24.96 56.12 19.376 57.336 19.376 57.336 22.032 57.384 22.032 58.176 20.952 59.432 19.376 60.808 19.376 58.928 21.672 60.976 24.96 59.544 24.96"></polygon>
        </g>
        <g id="Group-7">
            <path d="M11.3826492,32.7138473 C13.3595796,32.7138473 14.96464,34.3462175 14.96464,36.3569237 C14.96464,38.3675677 13.3595796,40 11.3826492,40 C9.40565766,40 7.80065834,38.3675677 7.80065834,36.3569237 C7.80065834,34.3462175 9.40565766,32.7138473 11.3826492,32.7138473 Z" id="Stroke-1" stroke="#212529" stroke-width="2.17541624" stroke-linecap="round" stroke-linejoin="round"></path>
            <path d="M11.3826492,35.0476338 C12.0931439,35.0476338 12.6699854,35.6343125 12.6699854,36.3569237 C12.6699854,37.0795348 12.0931439,37.6662135 11.3826492,37.6662135 C10.6721545,37.6662135 10.095313,37.0795348 10.095313,36.3569237 C10.095313,35.6343125 10.6721545,35.0476338 11.3826492,35.0476338 Z" id="Fill-2" fill="#212529"></path>
            <path d="M6.30303379,0 C7.6399934,0 8.7254748,1.10393051 8.7254748,2.46375213 C8.7254748,3.82351159 7.6399934,4.92750425 6.30303379,4.92750425 C4.96601307,4.92750425 3.88059278,3.82351159 3.88059278,2.46375213 C3.88059278,1.10393051 4.96601307,0 6.30303379,0 Z" id="Fill-3" fill="#212529"></path>
            <rect id="Rectangle" fill="#212529" x="10" y="8" width="3" height="8" rx="1"></rect>
            <rect id="Rectangle" fill="#212529" transform="translate(11.500000, 12.000000) rotate(90.000000) translate(-11.500000, -12.000000) " x="10" y="8" width="3" height="8" rx="1"></rect>
            <path d="M16.6969368,0 C18.0339575,0 19.1194389,1.10393051 19.1194389,2.46375213 C19.1194389,3.82351159 18.0339575,4.92750425 16.6969368,4.92750425 C15.3599772,4.92750425 14.2744958,3.82351159 14.2744958,2.46375213 C14.2744958,1.10393051 15.3599772,0 16.6969368,0 Z" id="Fill-4" fill="#212529"></path>
            <path d="M11.4999853,32.7138473 L11.4999853,27.4282074 C11.4999853,27.4282074 5.77514345,19.4199408 1.26356937,13.1088097 C0.0188286193,11.3676065 -0.330551921,9.12543605 0.323780324,7.07812075 C0.97811257,5.0308676 2.55701683,3.42615627 4.57043143,2.76209493 C4.57061477,2.76209493 4.57067588,2.76209493 4.57067588,2.76209493" id="Stroke-5" stroke="#212529" stroke-width="2.17541624" stroke-linecap="round" stroke-linejoin="round"></path>
            <path d="M11.4999853,32.7138473 L11.4999853,27.4282074 C11.4999853,27.4282074 17.2248272,19.4199408 21.7364624,13.1088097 C22.981142,11.3676065 23.3305836,9.12543605 22.6761903,7.07812075 C22.021858,5.0308676 20.4429538,3.42615627 18.4295392,2.76209493 C18.4293558,2.76209493 18.4292947,2.76209493 18.4292947,2.76209493" id="Stroke-6" stroke="#212529" stroke-width="2.17541624" stroke-linecap="round" stroke-linejoin="round"></path>
        </g>
    </g>
</svg>