<?xml version="1.0" encoding="UTF-8"?>
<svg width="142px" height="40px" viewBox="0 0 142 40" version="1.1" xmlns="http://www.w3.org/2000/svg"
  xmlns:xlink="http://www.w3.org/1999/xlink">
  <g stroke="none" stroke-width="1" fill="none" fill-rule="evenodd">
    <g transform="translate(32.304000, 9.040000)" fill="#212529" fill-rule="nonzero">
      <polygon
        points="11.056 13.96 0.476 13.96 0.476 11.26 7.376 2.68 0.816 2.68 0.816 1.77635684e-15 10.896 1.77635684e-15 10.896 2.7 3.976 11.28 11.056 11.28">
      </polygon>
      <path
        d="M13.176,1.77635684e-15 L18.436,1.77635684e-15 C19.356,1.77635684e-15 20.196,0.146666667 20.956,0.44 C21.716,0.733333333 22.3626667,1.17 22.896,1.75 C23.4293333,2.33 23.8426667,3.05666667 24.136,3.93 C24.4293333,4.80333333 24.576,5.82 24.576,6.98 C24.576,8.14 24.4293333,9.15666667 24.136,10.03 C23.8426667,10.9033333 23.4293333,11.63 22.896,12.21 C22.3626667,12.79 21.716,13.2266667 20.956,13.52 C20.196,13.8133333 19.356,13.96 18.436,13.96 L13.176,13.96 L13.176,1.77635684e-15 Z M18.436,11.26 C19.3426667,11.26 20.056,11.0066667 20.576,10.5 C21.096,9.99333333 21.356,9.18 21.356,8.06 L21.356,5.9 C21.356,4.78 21.096,3.96666667 20.576,3.46 C20.056,2.95333333 19.3426667,2.7 18.436,2.7 L16.216,2.7 L16.216,11.26 L18.436,11.26 Z">
      </path>
      <path
        d="M29.956,13.96 L26.916,13.96 L26.916,1.77635684e-15 L33.536,1.77635684e-15 C34.176,1.77635684e-15 34.756,0.106666667 35.276,0.32 C35.796,0.533333333 36.2393333,0.836666667 36.606,1.23 C36.9726667,1.62333333 37.256,2.09333333 37.456,2.64 C37.656,3.18666667 37.756,3.79333333 37.756,4.46 C37.756,5.40666667 37.546,6.23333333 37.126,6.94 C36.706,7.64666667 36.0693333,8.16 35.216,8.48 L37.956,13.96 L34.576,13.96 L32.136,8.84 L29.956,8.84 L29.956,13.96 Z M33.156,6.28 C33.6093333,6.28 33.966,6.16333333 34.226,5.93 C34.486,5.69666667 34.616,5.35333333 34.616,4.9 L34.616,4.02 C34.616,3.56666667 34.486,3.22333333 34.226,2.99 C33.966,2.75666667 33.6093333,2.64 33.156,2.64 L29.956,2.64 L29.956,6.28 L33.156,6.28 Z">
      </path>
      <path
        d="M48.796,13.96 L47.796,10.64 L43.136,10.64 L42.136,13.96 L39.056,13.96 L43.656,1.77635684e-15 L47.416,1.77635684e-15 L51.956,13.96 L48.796,13.96 Z M45.496,2.76 L45.396,2.76 L43.856,8.06 L47.056,8.06 L45.496,2.76 Z">
      </path>
      <polygon
        points="55.856 13.96 51.356 1.77635684e-15 54.436 1.77635684e-15 56.516 6.7 57.616 11.08 57.676 11.08 58.736 6.7 60.816 1.77635684e-15 63.796 1.77635684e-15 59.256 13.96">
      </polygon>
      <polygon
        points="69.676 7.36 68.336 4.56 68.276 4.56 68.276 13.96 65.416 13.96 65.416 1.77635684e-15 68.736 1.77635684e-15 72.556 6.6 73.896 9.4 73.956 9.4 73.956 1.77635684e-15 76.816 1.77635684e-15 76.816 13.96 73.496 13.96">
      </polygon>
      <polygon
        points="79.156 13.96 79.156 11.54 80.956 11.54 80.956 2.42 79.156 2.42 79.156 1.77635684e-15 85.796 1.77635684e-15 85.796 2.42 83.996 2.42 83.996 11.54 85.796 11.54 85.796 13.96">
      </polygon>
      <polygon
        points="92.996 7.88 91.176 10.08 91.176 13.96 88.136 13.96 88.136 1.77635684e-15 91.176 1.77635684e-15 91.176 6.64 91.296 6.64 93.276 3.94 96.416 1.77635684e-15 99.856 1.77635684e-15 95.156 5.74 100.276 13.96 96.696 13.96">
      </polygon>
      <polygon
        points="101.316 13.96 101.316 11.54 103.116 11.54 103.116 2.42 101.316 2.42 101.316 1.77635684e-15 107.956 1.77635684e-15 107.956 2.42 106.156 2.42 106.156 11.54 107.956 11.54 107.956 13.96">
      </polygon>
      <path
        d="M2.12,25.056 C1.62933333,25.056 1.21333333,24.972 0.872,24.804 C0.530666667,24.636 0.24,24.4186667 0,24.152 L0.8,23.344 C1.17866667,23.7706667 1.64533333,23.984 2.2,23.984 C2.49866667,23.984 2.72,23.9226667 2.864,23.8 C3.008,23.6773333 3.08,23.5146667 3.08,23.312 C3.08,23.1573333 3.03733333,23.028 2.952,22.924 C2.86666667,22.82 2.69333333,22.7493333 2.432,22.712 L1.88,22.64 C1.288,22.5653333 0.854666667,22.3866667 0.58,22.104 C0.305333333,21.8213333 0.168,21.4453333 0.168,20.976 C0.168,20.7253333 0.216,20.496 0.312,20.288 C0.408,20.08 0.545333333,19.9013333 0.724,19.752 C0.902666667,19.6026667 1.12133333,19.4866667 1.38,19.404 C1.63866667,19.3213333 1.93333333,19.28 2.264,19.28 C2.68533333,19.28 3.056,19.3466667 3.376,19.48 C3.696,19.6133333 3.97066667,19.808 4.2,20.064 L3.392,20.88 C3.25866667,20.7253333 3.09733333,20.5986667 2.908,20.5 C2.71866667,20.4013333 2.48,20.352 2.192,20.352 C1.92,20.352 1.71733333,20.4 1.584,20.496 C1.45066667,20.592 1.384,20.7253333 1.384,20.896 C1.384,21.088 1.436,21.2266667 1.54,21.312 C1.644,21.3973333 1.81333333,21.4586667 2.048,21.496 L2.6,21.584 C3.176,21.6746667 3.60266667,21.852 3.88,22.116 C4.15733333,22.38 4.296,22.7546667 4.296,23.24 C4.296,23.5066667 4.248,23.752 4.152,23.976 C4.056,24.2 3.916,24.392 3.732,24.552 C3.548,24.712 3.32,24.836 3.048,24.924 C2.776,25.012 2.46666667,25.056 2.12,25.056 Z">
      </path>
      <polygon points="7.704 24.96 7.704 19.376 8.92 19.376 8.92 23.88 11.048 23.88 11.048 24.96"></polygon>
      <polygon
        points="14.344 24.96 14.344 19.376 18.144 19.376 18.144 20.456 15.56 20.456 15.56 21.6 17.776 21.6 17.776 22.672 15.56 22.672 15.56 23.88 18.144 23.88 18.144 24.96">
      </polygon>
      <path
        d="M21.6,19.376 L23.704,19.376 C24.072,19.376 24.408,19.4346667 24.712,19.552 C25.016,19.6693333 25.2746667,19.844 25.488,20.076 C25.7013333,20.308 25.8666667,20.5986667 25.984,20.948 C26.1013333,21.2973333 26.16,21.704 26.16,22.168 C26.16,22.632 26.1013333,23.0386667 25.984,23.388 C25.8666667,23.7373333 25.7013333,24.028 25.488,24.26 C25.2746667,24.492 25.016,24.6666667 24.712,24.784 C24.408,24.9013333 24.072,24.96 23.704,24.96 L21.6,24.96 L21.6,19.376 Z M23.704,23.88 C24.0666667,23.88 24.352,23.7786667 24.56,23.576 C24.768,23.3733333 24.872,23.048 24.872,22.6 L24.872,21.736 C24.872,21.288 24.768,20.9626667 24.56,20.76 C24.352,20.5573333 24.0666667,20.456 23.704,20.456 L22.816,20.456 L22.816,23.88 L23.704,23.88 Z">
      </path>
      <polygon
        points="29.36 24.96 29.36 23.992 30.08 23.992 30.08 20.344 29.36 20.344 29.36 19.376 32.016 19.376 32.016 20.344 31.296 20.344 31.296 23.992 32.016 23.992 32.016 24.96">
      </polygon>
      <polygon points="35.432 24.96 35.432 19.376 36.648 19.376 36.648 23.88 38.776 23.88 38.776 24.96">
      </polygon>
      <polygon
        points="43.776 22.32 43.24 21.2 43.216 21.2 43.216 24.96 42.072 24.96 42.072 19.376 43.4 19.376 44.928 22.016 45.464 23.136 45.488 23.136 45.488 19.376 46.632 19.376 46.632 24.96 45.304 24.96">
      </polygon>
      <polygon
        points="50.048 24.96 50.048 23.992 50.768 23.992 50.768 20.344 50.048 20.344 50.048 19.376 52.704 19.376 52.704 20.344 51.984 20.344 51.984 23.992 52.704 23.992 52.704 24.96">
      </polygon>
      <polygon
        points="58.064 22.528 57.336 23.408 57.336 24.96 56.12 24.96 56.12 19.376 57.336 19.376 57.336 22.032 57.384 22.032 58.176 20.952 59.432 19.376 60.808 19.376 58.928 21.672 60.976 24.96 59.544 24.96">
      </polygon>
    </g>
    <g transform="translate(1.000000, 0.000000)" fill="#212529">
      <path
        d="M17.3138389,0 C18.4027533,0 19.3202842,0.752150687 19.5910892,1.77307429 L19.3322494,1.68334563 C21.6157112,2.43647352 23.4036163,4.2535907 24.1434462,6.56834582 C24.8821612,8.87946751 24.4878036,11.4101398 23.0813893,13.3775962 L13.313,27.04 L13.3140053,30.9439778 C15.1910865,31.4511132 16.5883292,33.1451367 16.6813728,35.1780742 L16.6863144,35.3944528 C16.6863144,37.9327206 14.6536982,40 12.1402356,40 C9.62673115,40 7.59415677,37.9327387 7.59415677,35.3944528 C7.59415677,33.1833742 9.13640921,31.3297614 11.1953885,30.8885644 L11.1952822,27.0416641 L1.42760293,13.3775987 C0.0211684737,11.4102106 -0.37318749,8.87954942 0.365478885,6.56836426 C1.07718644,4.34159712 2.7587844,2.57536447 4.91841299,1.77382896 C5.18868837,0.752150687 6.10617762,0 7.195092,0 C8.4966585,0 9.55340413,1.07470634 9.55340413,2.39852962 C9.55340413,3.7222924 8.4966585,4.79705925 7.195092,4.79705925 C6.44629245,4.79705925 5.77855507,4.44136816 5.34642607,3.88720232 C3.94524804,4.50875254 2.86171428,5.71462809 2.3827766,7.21311252 C1.8474069,8.88821043 2.13335099,10.7231709 3.15047579,12.145974 L12.254,24.881 L21.3585061,12.1459859 C22.3756149,10.7231353 22.6615602,8.8881672 22.1261572,7.2131214 C21.6469519,5.7137996 20.5624833,4.50741784 19.1627346,3.88525123 C18.7312084,4.44093505 18.0630942,4.79705925 17.3138389,4.79705925 C16.0122724,4.79705925 14.9555268,3.7222924 14.9555268,2.39852962 C14.9555268,1.07470634 16.0122724,0 17.3138389,0 Z M12.1402356,32.9067324 C10.8044478,32.9067324 9.71198358,34.017827 9.71198358,35.3944528 C9.71198358,36.7710418 10.8044712,37.8821732 12.1402356,37.8821732 C13.4759638,37.8821732 14.5684875,36.7710181 14.5684875,35.3944528 C14.5684875,34.0178506 13.4759872,32.9067324 12.1402356,32.9067324 Z"
        fill-rule="nonzero"></path>
      <path
        d="M12.1402356,34.1198236 C12.8319214,34.1198236 13.3934923,34.6909713 13.3934923,35.3944528 C13.3934923,36.0979344 12.8319214,36.669082 12.1402356,36.669082 C11.4485497,36.669082 10.8869788,36.0979344 10.8869788,35.3944528 C10.8869788,34.6909713 11.4485497,34.1198236 12.1402356,34.1198236 Z">
      </path>
      <path
        d="M12.7147705,7.78821732 C13.2670553,7.78821732 13.7147705,8.23593257 13.7147705,8.78821732 L13.7143711,10.2212173 L15.1485884,10.2220352 C15.7008732,10.2220352 16.1485884,10.6697505 16.1485884,11.2220352 L16.1485884,12.1426167 C16.1485884,12.6949015 15.7008732,13.1426167 15.1485884,13.1426167 L13.7143711,13.1422173 L13.7147705,14.5764346 C13.7147705,15.1287194 13.2670553,15.5764346 12.7147705,15.5764346 L11.794189,15.5764346 C11.2419043,15.5764346 10.794189,15.1287194 10.794189,14.5764346 L10.7933711,13.1422173 L9.36037112,13.1426167 C8.80808637,13.1426167 8.36037112,12.6949015 8.36037112,12.1426167 L8.36037112,11.2220352 C8.36037112,10.6697505 8.80808637,10.2220352 9.36037112,10.2220352 L10.7933711,10.2212173 L10.794189,8.78821732 C10.794189,8.23593257 11.2419043,7.78821732 11.794189,7.78821732 L12.7147705,7.78821732 Z">
      </path>
    </g>
  </g>
</svg>
